<?xml version="1.0" encoding="utf-8"?>
<!-- Generator: Adobe Illustrator 16.0.0, SVG Export Plug-In . SVG Version: 6.00 Build 0)  -->
<!DOCTYPE svg PUBLIC "-//W3C//DTD SVG 1.1//EN" "http://www.w3.org/Graphics/SVG/1.1/DTD/svg11.dtd">
<svg version="1.1" id="Layer_1" xmlns="http://www.w3.org/2000/svg" xmlns:xlink="http://www.w3.org/1999/xlink" x="0px" y="0px"
	 width="305.002px" height="305px" viewBox="103.499 103.5 305.002 305" enable-background="new 103.499 103.5 305.002 305"
	 xml:space="preserve">
<g>
	<path fill="#7FC6A4" d="M256.001,103.5c-84.09,0-152.502,68.411-152.502,152.5s68.412,152.5,152.502,152.5
		c84.089,0,152.5-68.411,152.5-152.5S340.09,103.5,256.001,103.5z M256.001,383.5c-70.305,0-127.502-57.196-127.502-127.5
		c0-70.304,57.197-127.5,127.502-127.5c70.304,0,127.5,57.196,127.5,127.5C383.501,326.304,326.305,383.5,256.001,383.5z"/>
	<path fill="#7FC6A4" d="M321.973,197.469l-90.547,90.547l-41.398-41.398c-4.882-4.881-12.796-4.881-17.678,0
		c-4.881,4.882-4.881,12.796,0,17.678l50.237,50.237c2.441,2.439,5.64,3.661,8.839,3.661c3.199,0,6.398-1.222,8.839-3.661
		l99.385-99.385c4.881-4.882,4.881-12.796,0-17.678C334.768,192.588,326.854,192.588,321.973,197.469z"/>
</g>
</svg>
