<?xml version="1.0" encoding="utf-8"?>
<!-- Generator: Adobe Illustrator 16.0.0, SVG Export Plug-In . SVG Version: 6.00 Build 0)  -->
<!DOCTYPE svg PUBLIC "-//W3C//DTD SVG 1.1//EN" "http://www.w3.org/Graphics/SVG/1.1/DTD/svg11.dtd">
<svg version="1.1" id="Layer_1" xmlns="http://www.w3.org/2000/svg" xmlns:xlink="http://www.w3.org/1999/xlink" x="0px" y="0px"
	 width="504px" height="106.779px" viewBox="0 0 504 106.779" enable-background="new 0 0 504 106.779" xml:space="preserve">
<g>
	<g>
		<path fill="#D7E4E9" d="M77.476,68.443c-1.272,0.564-2.506,1.312-3.7,2.239c-1.194,0.927-2.402,1.942-3.622,3.045
			c-1.221,1.104-2.487,2.267-3.797,3.489c-1.312,1.224-2.727,2.362-4.245,3.415c-1.519,1.053-3.174,2.059-4.966,3.018
			c-1.792,0.958-3.771,1.8-5.939,2.521c-2.168,0.721-4.557,1.295-7.166,1.722c-2.609,0.426-5.498,0.64-8.666,0.64
			c-3.505,0-6.667-0.698-9.483-2.095c-2.817-1.396-5.226-3.278-7.225-5.647c-2-2.37-3.538-5.123-4.615-8.262
			c-1.078-3.138-1.616-6.436-1.616-9.894c0-2.405,0.259-4.987,0.779-7.745c0.519-2.758,1.266-5.568,2.24-8.432
			s2.162-5.72,3.563-8.569c1.402-2.849,2.992-5.582,4.771-8.196c1.778-2.613,3.732-5.04,5.861-7.274
			c2.129-2.235,4.401-4.184,6.815-5.843c2.415-1.66,4.959-2.961,7.634-3.902c2.674-0.941,5.452-1.412,8.334-1.412
			c1.869,0,3.764,0.331,5.686,0.993c1.921,0.662,3.647,1.682,5.18,3.058c1.532,1.376,2.785,3.116,3.759,5.219
			c0.974,2.104,1.46,4.583,1.46,7.438c0,1.922-0.306,3.862-0.916,5.823c-0.61,1.96-1.448,3.843-2.512,5.646
			c-1.065,1.806-2.317,3.499-3.758,5.083s-2.993,2.954-4.654,4.109c-1.662,1.156-3.388,2.071-5.18,2.746
			c-1.792,0.676-3.583,1.013-5.375,1.013c-2.363,0-4.128-0.317-5.296-0.954c-1.168-0.636-1.753-1.551-1.753-2.746
			c0-0.208-0.006-0.454-0.019-0.739c-0.014-0.285-0.02-0.584-0.02-0.896c0-0.467,0.025-0.955,0.078-1.46
			c0.052-0.506,0.156-0.967,0.312-1.383c0.156-0.415,0.383-0.753,0.682-1.014c0.298-0.259,0.707-0.389,1.227-0.389
			c0.312,0,0.584,0.045,0.818,0.136c0.233,0.092,0.493,0.188,0.779,0.292c0.285,0.104,0.629,0.202,1.032,0.292
			c0.402,0.092,0.915,0.137,1.538,0.137c1.662,0,3.343-0.363,5.043-1.09c1.701-0.728,3.233-1.753,4.596-3.077
			c1.363-1.324,2.479-2.901,3.35-4.732c0.87-1.831,1.305-3.849,1.305-6.056c0-1.168-0.156-2.278-0.467-3.33
			s-0.818-1.973-1.519-2.765c-0.701-0.793-1.604-1.429-2.707-1.908c-1.104-0.48-2.448-0.722-4.031-0.722
			c-1.869,0-3.694,0.413-5.472,1.238c-1.779,0.825-3.486,1.944-5.122,3.358c-1.636,1.415-3.188,3.09-4.654,5.027
			c-1.467,1.938-2.823,4.014-4.07,6.227c-1.246,2.212-2.37,4.517-3.369,6.914c-1,2.396-1.85,4.785-2.551,7.168
			s-1.24,4.693-1.616,6.933s-0.564,4.302-0.564,6.188c0,2.77,0.331,5.184,0.993,7.24c0.662,2.058,1.603,3.771,2.823,5.144
			c1.22,1.372,2.713,2.394,4.479,3.064c1.765,0.674,3.751,1.01,5.959,1.01c2.751,0,5.316-0.356,7.692-1.069
			c2.375-0.712,4.641-1.647,6.796-2.804s4.238-2.461,6.251-3.913c2.012-1.452,4.024-2.911,6.037-4.376
			c2.012-1.466,4.063-2.864,6.153-4.195s4.304-2.454,6.641-3.369L77.476,68.443L77.476,68.443z"/>
		<path fill="#D7E4E9" d="M96.364,51.025c0.753,1.507,1.318,3.097,1.694,4.771s0.565,3.562,0.565,5.667
			c0,1.532-0.169,3.077-0.506,4.634c-0.338,1.558-0.825,3.064-1.46,4.519c-0.637,1.453-1.416,2.816-2.337,4.089
			c-0.922,1.271-1.974,2.375-3.155,3.311c-1.182,0.936-2.473,1.674-3.875,2.22c-1.402,0.545-2.896,0.818-4.479,0.818
			c-2.285,0-4.239-0.5-5.861-1.5c-1.623-0.999-2.954-2.304-3.992-3.914c-1.039-1.609-1.798-3.427-2.278-5.453
			c-0.48-2.024-0.72-4.076-0.72-6.152c0-3.428,0.428-6.381,1.285-8.86s2.083-4.635,3.68-6.465c1.597-1.831,3.55-3.271,5.862-4.323
			c2.311-1.052,4.907-1.577,7.789-1.577c2.466,0,4.777,0.383,6.933,1.149c2.155,0.766,4.173,1.792,6.056,3.077
			c1.882,1.284,3.635,2.9,5.258,4.849c1.622,1.947,3.135,3.804,4.537,5.569l-0.74,5.491c-0.701-0.935-1.649-1.946-2.843-3.038
			c-1.195-1.09-2.46-2.298-3.797-3.621c-1.337-1.324-2.655-2.447-3.953-3.369c-1.298-0.921-2.415-1.694-3.349-2.317L96.364,51.025z
			 M84.33,73.576c0.882,0,1.739-0.448,2.57-1.345c0.831-0.896,1.558-2.024,2.181-3.388s1.123-3.012,1.5-4.946
			c0.376-1.934,0.564-3.653,0.564-5.161c0-1.193-0.091-2.304-0.272-3.329c-0.182-1.025-0.455-1.915-0.818-2.668
			c-0.364-0.754-0.831-1.351-1.402-1.793c-0.572-0.44-1.26-0.661-2.064-0.661c-1.065,0-2.078,0.455-3.038,1.362
			c-0.961,0.909-1.805,2.071-2.532,3.485c-0.727,1.416-1.298,2.979-1.713,4.693c-0.416,1.713-0.624,3.647-0.624,5.803
			c0,1.091,0.104,2.117,0.312,3.077c0.208,0.961,0.532,1.798,0.974,2.512c0.441,0.714,1.025,1.285,1.752,1.714
			C82.447,73.361,83.317,73.576,84.33,73.576z"/>
		<path fill="#D7E4E9" d="M106.023,72.914c0-1.714,0.103-3.693,0.312-5.939c0.208-2.246,0.467-4.712,0.779-7.399
			s0.662-5.108,1.051-7.264c0.39-2.154,0.766-3.999,1.13-5.53c0.285-1.194,0.837-2.194,1.655-2.999
			c0.818-0.806,1.928-1.208,3.33-1.208c1.402,0,2.376,0.428,2.921,1.284c0.545,0.857,0.818,2,0.818,3.428
			c0,0.39-0.039,0.916-0.117,1.577c-0.078,0.662-0.175,1.39-0.292,2.182c-0.117,0.792-0.241,1.609-0.37,2.454
			c-0.13,0.844-0.253,1.805-0.37,2.882c-0.117,1.078-0.214,1.883-0.292,2.415s-0.117,0.89-0.117,1.071h0.779
			c0.156-0.285,0.402-0.746,0.74-1.383c0.337-0.636,0.727-1.551,1.168-2.746c0.441-1.194,0.916-2.252,1.422-3.174
			c0.506-0.921,0.979-1.804,1.421-2.647c0.441-0.843,0.843-1.59,1.208-2.239c0.363-0.649,0.636-1.129,0.818-1.441
			c0.831-1.401,1.778-2.361,2.843-2.882c1.064-0.519,2.246-0.778,3.544-0.778c1.298,0,2.33,0.545,3.096,1.636
			c0.766,1.09,1.149,2.597,1.149,4.518c0,0.286-0.059,0.768-0.175,1.441c-0.117,0.675-0.267,1.479-0.448,2.415
			c-0.182,0.935-0.384,2.142-0.604,3.622c-0.221,1.479-0.422,2.804-0.604,3.973c-0.182,1.168-0.331,2.324-0.448,3.466
			c-0.117,1.144-0.175,2.194-0.175,3.155c0,1.61,0.201,2.935,0.604,3.973c0.402,1.039,1.032,1.559,1.889,1.559
			c0.312,0,0.753-0.117,1.324-0.352c0.857-0.312,1.402-0.584,1.636-0.817c1.143-0.882,1.739-1.312,1.792-1.285
			c0.078,0.025,0.948-0.493,2.61-1.559c2.077-1.323,4.557-2.946,7.438-4.867l-0.039,8.724l-1.947,1.48
			c-0.156,0.13-1.376,0.805-3.661,2.024c-3.298,1.767-5.362,2.83-6.193,3.193c-2.025,0.909-3.285,1.428-3.778,1.558
			c-1.298,0.416-2.662,0.623-4.089,0.623c-1.428,0-2.628-1.032-3.603-3.096c-0.974-2.064-1.46-5.083-1.46-9.056
			c0-1.558,0.104-3.238,0.312-5.043c0.208-1.804,0.468-3.744,0.779-5.821h-0.623l-10.204,20.252
			c-0.545,1.09-1.129,1.817-1.752,2.181c-0.649,0.389-1.402,0.584-2.259,0.584c-1.065,0-1.921-0.227-2.57-0.682
			c-0.649-0.454-1.149-1.064-1.5-1.831c-0.351-0.766-0.584-1.636-0.701-2.609C106.082,74.958,106.023,73.952,106.023,72.914z"/>
		<path fill="#D7E4E9" d="M167.714,51.025c0.753,1.507,1.318,3.097,1.694,4.771s0.565,3.562,0.565,5.667
			c0,1.532-0.169,3.077-0.506,4.634c-0.338,1.558-0.825,3.064-1.46,4.519c-0.637,1.453-1.416,2.816-2.337,4.089
			c-0.922,1.271-1.974,2.375-3.155,3.311c-1.182,0.936-2.473,1.674-3.875,2.22c-1.402,0.545-2.896,0.818-4.479,0.818
			c-2.285,0-4.239-0.5-5.861-1.5c-1.623-0.999-2.954-2.304-3.992-3.914c-1.039-1.609-1.798-3.427-2.278-5.453
			c-0.48-2.024-0.72-4.076-0.72-6.152c0-3.428,0.428-6.381,1.285-8.86c0.857-2.479,2.083-4.635,3.68-6.465
			c1.597-1.831,3.55-3.271,5.862-4.323c2.311-1.052,4.907-1.577,7.789-1.577c2.466,0,4.777,0.383,6.933,1.149
			c2.155,0.766,4.173,1.792,6.056,3.077c1.882,1.284,3.635,2.9,5.258,4.849c1.622,1.947,3.135,3.804,4.537,5.569l-0.74,5.491
			c-0.701-0.935-1.649-1.946-2.843-3.038c-1.195-1.09-2.46-2.298-3.797-3.621c-1.337-1.324-2.655-2.447-3.953-3.369
			c-1.298-0.921-2.415-1.694-3.349-2.317L167.714,51.025z M155.68,73.576c0.882,0,1.739-0.448,2.57-1.345
			c0.831-0.896,1.558-2.024,2.181-3.388s1.123-3.012,1.5-4.946c0.376-1.934,0.564-3.653,0.564-5.161
			c0-1.193-0.091-2.304-0.272-3.329c-0.182-1.025-0.455-1.915-0.818-2.668c-0.364-0.754-0.831-1.351-1.402-1.793
			c-0.572-0.44-1.26-0.661-2.064-0.661c-1.065,0-2.078,0.455-3.038,1.362c-0.961,0.909-1.805,2.071-2.532,3.485
			c-0.727,1.416-1.298,2.979-1.713,4.693c-0.416,1.713-0.624,3.647-0.624,5.803c0,1.091,0.104,2.117,0.312,3.077
			c0.208,0.961,0.532,1.798,0.974,2.512c0.441,0.714,1.025,1.285,1.752,1.714S154.667,73.576,155.68,73.576z"/>
		<path fill="#D7E4E9" d="M177.373,72.914c0-1.144,0.064-2.474,0.194-3.992c0.13-1.52,0.305-3.122,0.526-4.811
			c0.22-1.687,0.48-3.407,0.779-5.159c0.298-1.752,0.682-3.622,1.149-5.608c0.468-1.986,0.87-3.642,1.208-4.965
			c0.337-1.324,0.675-2.415,1.013-3.271c0.208-0.57,0.415-1.024,0.623-1.362c0.208-0.337,0.448-0.604,0.721-0.798
			c0.272-0.195,0.609-0.325,1.012-0.391c0.402-0.063,0.902-0.097,1.5-0.097c0.675,0,1.201,0.033,1.578,0.097
			c0.376,0.065,0.655,0.221,0.837,0.467c0.181,0.247,0.292,0.604,0.331,1.071c0.039,0.467,0.059,1.104,0.059,1.908
			c0,0.961-0.065,2.324-0.195,4.089c-0.13,1.766-0.169,3.311-0.117,4.635h0.428c0.52-1.038,1.168-2.4,1.948-4.089
			c0.779-1.688,1.597-3.09,2.454-4.207c0.856-1.116,1.83-2.057,2.921-2.823c1.09-0.766,2.35-1.148,3.778-1.148
			c0.493,0,0.974,0.084,1.441,0.253c0.467,0.169,0.876,0.409,1.227,0.721c0.351,0.312,0.629,0.695,0.837,1.149
			c0.208,0.455,0.312,0.967,0.312,1.538c0,0.441-0.065,1.059-0.194,1.85c-0.13,0.792-0.338,1.824-0.624,3.096
			c-0.286,1.272-0.493,2.317-0.623,3.136c-0.13,0.817-0.195,1.5-0.195,2.045c0,0.935,0.091,1.713,0.273,2.336
			c0.181,0.623,0.421,1.124,0.72,1.5c0.298,0.377,0.636,0.643,1.013,0.798c0.376,0.156,0.772,0.233,1.188,0.233
			c1.168,0,2.375-0.259,3.622-0.778c1.246-0.521,2.388-1.104,3.427-1.753c1.22-0.752,2.415-1.609,3.583-2.57l-0.584,9.113
			c-0.675,0.441-1.441,0.935-2.298,1.479c-0.856,0.545-1.772,1.06-2.746,1.539c-0.974,0.48-1.986,0.883-3.038,1.207
			c-1.052,0.325-2.123,0.487-3.213,0.487c-1.947,0-3.519-0.396-4.712-1.188c-1.194-0.792-2.142-1.831-2.843-3.115
			c-0.701-1.285-1.221-2.728-1.558-4.323c-0.338-1.597-0.61-3.213-0.818-4.85h-0.623l-6.972,19.435
			c-0.364,1.013-0.708,1.85-1.032,2.512c-0.325,0.662-0.656,1.201-0.993,1.616c-0.338,0.416-0.701,0.708-1.091,0.876
			c-0.389,0.169-0.818,0.253-1.285,0.253c-1.065,0-1.921-0.227-2.57-0.682c-0.649-0.454-1.149-1.064-1.5-1.831
			c-0.351-0.766-0.584-1.637-0.701-2.609C177.431,74.958,177.373,73.952,177.373,72.914z"/>
		<path fill="#D7E4E9" d="M244.308,77.233c-0.104,0.78-0.351,1.417-0.739,1.91c-0.389,0.494-0.856,0.883-1.4,1.169
			s-1.128,0.488-1.75,0.604c-0.623,0.117-1.219,0.175-1.789,0.175c-0.674,0-1.329-0.071-1.964-0.214
			c-0.636-0.144-1.2-0.363-1.692-0.662c-0.493-0.298-0.882-0.662-1.167-1.09c-0.286-0.43-0.429-0.916-0.429-1.46
			c0-1.064,0.052-2.045,0.156-2.94s0.259-1.798,0.467-2.707c0.664-3.04,1.281-5.866,1.85-8.475c0.57-2.609,1.228-5.059,1.976-7.344
			c0.747-2.287,1.247-4.534,1.5-6.741s0.506-4.414,0.759-6.621s0.359-4.505,0.318-6.896c-0.042-2.391-0.085-4.95-0.133-7.683
			c0-0.236,0-0.538,0-0.905c0-0.368-0.037-0.714-0.111-1.039c-0.074-0.323-0.203-0.604-0.388-0.837
			c-0.185-0.232-0.462-0.35-0.831-0.35c-0.592,0-1.313,0.214-2.163,0.643c-0.85,0.429-1.743,1.006-2.679,1.733
			c-0.937,0.727-1.873,1.577-2.809,2.551s-1.798,2.02-2.587,3.135c-0.148,0.391-0.382,0.669-0.702,0.837
			c-0.32,0.169-0.677,0.253-1.072,0.253c-0.123,0-0.252-0.109-0.388-0.33c-0.135-0.221-0.258-0.487-0.37-0.799
			c-0.11-0.312-0.203-0.643-0.277-0.992c-0.073-0.352-0.11-0.668-0.11-0.955c0-0.156,0.052-0.285,0.156-0.39
			c0.935-3.062,1.992-5.628,3.174-7.691c1.181-2.064,2.428-3.713,3.739-4.946s2.648-2.109,4.012-2.629
			c1.363-0.52,2.668-0.779,3.914-0.779c1.609,0,2.946,0.306,4.011,0.915c1.064,0.61,1.909,1.467,2.532,2.571
			c0.623,1.104,1.058,2.434,1.305,3.992c0.247,1.558,0.37,3.285,0.37,5.18c0,1.454-0.143,3.16-0.427,5.118
			c-0.284,1.958-0.583,4.02-0.896,6.185c-0.313,2.166-0.713,4.314-1.199,6.446c-0.486,2.131-0.957,4.121-1.413,5.97
			c0.841-3.453,1.833-6.77,2.976-9.951c1.144-3.18,2.392-6.152,3.746-8.918c1.354-2.765,2.793-5.271,4.317-7.517
			c1.523-2.246,3.094-4.173,4.711-5.784c1.617-1.608,3.252-2.855,4.91-3.739c1.654-0.882,3.299-1.323,4.928-1.323
			c1.193,0,2.298,0.26,3.312,0.778c1.013,0.521,1.881,1.324,2.606,2.415c0.728,1.09,1.291,2.468,1.695,4.128
			c0.402,1.662,0.604,3.637,0.604,5.92c0,0.208-0.021,0.533-0.06,0.975s-0.092,0.948-0.156,1.519
			c-0.063,0.571-0.143,1.188-0.231,1.851c-0.092,0.662-0.176,1.317-0.254,1.967c-0.209,1.558-0.428,3.246-0.662,5.062l0.818-0.039
			c1.01-3.842,2.254-7.296,3.729-10.359c1.479-3.063,3.137-5.667,4.978-7.81c1.84-2.142,3.821-3.783,5.946-4.927
			c2.125-1.142,4.328-1.713,6.609-1.713c1.57,0,2.969,0.467,4.191,1.402c1.225,0.935,2.248,2.201,3.072,3.797
			c0.823,1.596,1.455,3.466,1.895,5.607c0.438,2.143,0.656,4.407,0.656,6.797c0,2.232-0.219,4.569-0.656,7.011
			s-0.871,4.869-1.305,7.283c-0.435,2.414-0.861,4.788-1.279,7.122c-0.42,2.334-0.816,4.546-1.191,6.638
			c-0.377,2.092-0.719,4.017-1.025,5.774c-0.309,1.76-0.463,3.091-0.463,3.993c0,1.134,0.277,1.955,0.832,2.464
			c0.556,0.51,1.361,0.765,2.418,0.765c0.599,0,1.228-0.162,1.89-0.487c0.662-0.324,1.323-0.752,1.985-1.285
			c0.662-0.532,1.318-1.142,1.968-1.831c0.649-0.688,1.272-1.395,1.87-2.123c1.375-1.661,2.738-3.568,4.089-5.725
			c0,0.026,0.116,0.299,0.352,0.818c0.183,0.441,0.48,1.194,0.896,2.259c0.416,1.064,1,2.597,1.754,4.596
			c-1.299,2.285-2.637,4.22-4.012,5.803c-1.377,1.584-2.779,2.876-4.207,3.875c-1.428,1-2.875,1.721-4.342,2.162
			c-1.468,0.442-2.925,0.662-4.367,0.662c-1.402,0-2.771-0.247-4.107-0.74c-1.336-0.492-2.521-1.227-3.561-2.2
			c-1.041-0.975-1.869-2.182-2.49-3.622c-0.623-1.441-0.936-3.097-0.936-4.967c0-0.208,0.008-0.428,0.02-0.661
			c0.014-0.233,0.033-0.468,0.059-0.701c0.104-1.739,0.334-3.604,0.691-5.591c0.355-1.987,0.725-4.047,1.107-6.178
			c0.381-2.13,0.77-4.293,1.161-6.488c0.394-2.195,0.785-4.385,1.177-6.566c0.391-2.183,0.771-4.326,1.146-6.432
			c0.373-2.105,0.56-3.942,0.56-5.512c0-1.168-0.039-2.226-0.117-3.174s-0.236-1.753-0.472-2.415s-0.573-1.174-1.018-1.538
			c-0.445-0.362-1.033-0.545-1.767-0.545c-1.471,0-2.856,0.479-4.162,1.437c-1.305,0.958-2.539,2.276-3.705,3.958
			s-2.256,3.674-3.268,5.977c-1.014,2.303-1.971,4.793-2.873,7.471c-0.9,2.678-1.666,5.482-2.297,8.414
			c-0.629,2.932-1.32,5.967-2.074,9.104s-1.332,6.107-1.731,8.91c-0.402,2.802-0.855,5.496-1.359,8.082
			c-0.18,0.728-0.457,1.345-0.832,1.852c-0.373,0.507-0.803,0.917-1.291,1.229c-0.485,0.312-1.002,0.538-1.545,0.682
			c-0.543,0.143-1.086,0.214-1.631,0.214s-1.082-0.104-1.613-0.312c-0.53-0.208-0.997-0.539-1.399-0.993
			c-0.4-0.454-0.726-1.032-0.971-1.733c-0.246-0.701-0.369-1.558-0.369-2.571c-0.502-0.675-0.597-1.839-0.283-3.494
			s0.693-3.621,1.139-5.899c0.446-2.278,0.965-4.819,1.557-7.625c0.594-2.805,1.133-5.603,1.619-8.392s1.006-5.574,1.557-8.354
			c0.552-2.778,0.826-5.337,0.826-7.674c0-1.609-0.041-3.05-0.121-4.323c-0.08-1.271-0.268-2.35-0.563-3.231
			c-0.295-0.884-0.719-1.559-1.271-2.025c-0.553-0.467-1.285-0.701-2.198-0.701c-0.755,0-1.613,0.494-2.582,1.48
			c-0.97,0.985-2.011,2.35-3.128,4.089c-1.114,1.739-2.266,3.784-3.447,6.133c-1.184,2.35-2.359,4.887-3.53,7.613
			c-1.17,2.727-2.299,5.576-3.388,8.548c-1.089,2.973-2.003,5.968-2.741,8.988c-0.738,3.02-1.454,5.95-2.148,8.793
			C245.536,72.212,244.895,74.833,244.308,77.233z"/>
		<path fill="#D7E4E9" d="M328.229,81.053c-2.403,0-4.515-0.441-6.33-1.324c-1.816-0.882-3.34-2.063-4.567-3.544
			c-1.228-1.479-2.156-3.193-2.783-5.141c-0.628-1.947-0.94-3.974-0.94-6.076c0-1.505,0.261-3.311,0.783-5.414
			c0.521-2.103,1.09-3.938,1.702-5.511c0.613-1.571,1.37-3.07,2.271-4.499c0.899-1.427,1.944-2.68,3.132-3.758
			c1.188-1.077,2.513-1.935,3.975-2.57c1.463-0.636,3.066-0.954,4.815-0.954c1.573,0,3.03,0.229,4.371,0.682
			c1.341,0.455,2.487,1.084,3.438,1.89c0.953,0.805,1.699,1.759,2.238,2.862c0.538,1.104,0.809,2.292,0.809,3.563
			c0,0.883-0.127,1.752-0.381,2.609c-0.253,0.856-0.744,1.862-1.475,3.019s-1.439,1.941-2.128,2.356
			c-0.688,0.416-1.468,0.623-2.339,0.623c-1.313,0-2.161-0.324-2.545-0.975c-0.629-1.012-0.827-1.908-0.596-2.687
			c0.077-0.415,0.311-1.376,0.698-2.882c0.052-0.208,0.063-0.676,0.039-1.402c0-0.623-0.065-1.143-0.194-1.559
			c-0.129-0.414-0.412-0.622-0.853-0.622c-1.06,0-1.965,0.253-2.715,0.76c-0.749,0.506-1.39,1.168-1.919,1.985
			c-0.53,0.818-1.055,1.975-1.57,3.467c-0.518,1.493-0.886,2.746-1.105,3.758c-0.22,1.013-0.354,1.979-0.406,2.901
			c-0.053,0.923-0.077,1.694-0.077,2.317c0,0.935,0.084,1.909,0.252,2.921s0.504,1.941,1.008,2.785s1.156,1.545,1.958,2.103
			c0.803,0.56,1.836,0.838,3.104,0.838c1.246,0,2.621-0.384,4.127-1.149c1.507-0.766,3.02-1.733,4.537-2.902
			c1.521-1.168,2.967-2.454,4.344-3.854c1.375-1.401,2.558-2.727,3.544-3.974l2.688,4.519c-1.947,2.778-4.051,5.258-6.311,7.438
			c-0.961,0.936-2.006,1.845-3.135,2.728c-1.131,0.883-2.312,1.668-3.545,2.355c-1.232,0.688-2.519,1.247-3.854,1.676
			C330.955,80.839,329.602,81.053,328.229,81.053z"/>
		<path fill="#D7E4E9" d="M413.271,72.329c-0.547,0.571-1.24,1.221-2.084,1.946c-0.845,0.729-1.791,1.46-2.844,2.201
			c-1.052,0.74-2.188,1.46-3.408,2.162c-1.221,0.701-2.467,1.324-3.737,1.869c-1.272,0.545-2.552,0.979-3.837,1.305
			s-2.519,0.487-3.697,0.487c-0.82,0-1.646-0.143-2.479-0.428c-0.832-0.286-1.588-0.812-2.268-1.577
			c-0.68-0.767-1.236-1.824-1.672-3.174c-0.436-1.351-0.653-3.104-0.653-5.259c0-0.908,0.064-1.889,0.192-2.939
			s0.295-2.188,0.5-3.408c-1.454,2.935-3.096,5.745-4.926,8.432c-1.83,2.688-3.776,4.791-5.84,6.311
			c-2.062,1.519-4.197,2.668-6.403,3.447c-2.207,0.778-4.412,1.168-6.618,1.168c-2.415,0-4.707-0.422-6.874-1.267
			c-2.169-0.844-4.084-2.103-5.745-3.777c-1.662-1.675-2.979-3.759-3.953-6.25c-0.974-2.493-1.46-5.843-1.46-10.049
			c0-2.518,0.291-5.153,0.875-7.905c0.583-2.751,1.433-5.53,2.548-8.334c1.115-2.805,2.463-5.582,4.047-8.334
			c1.582-2.752,3.385-5.368,5.406-7.849c2.022-2.479,4.232-4.776,6.633-6.894c2.397-2.116,4.959-3.946,7.683-5.491
			c2.723-1.544,5.588-2.759,8.597-3.642c3.01-0.882,6.135-1.324,9.375-1.324c0.871,0,1.569,0.072,2.096,0.214
			c0.524,0.143,0.922,0.325,1.19,0.545c0.271,0.221,0.442,0.448,0.519,0.683c0.078,0.233,0.116,0.441,0.116,0.622
			c0,0.131-0.007,0.247-0.02,0.352c-0.015,0.104-0.021,0.182-0.021,0.233v0.195c0.709,0.416,1.432,0.668,2.166,0.759
			c0.735,0.092,1.457,0.169,2.166,0.234s1.379,0.201,2.01,0.409c0.629,0.208,1.182,0.617,1.653,1.227
			c0.474,0.61,0.847,1.499,1.122,2.667s0.414,2.752,0.414,4.751c0,1.563-0.135,3.32-0.402,5.274
			c-0.271,1.953-0.646,3.994-1.135,6.123c-0.486,2.128-1.036,4.288-1.646,6.476c-0.61,2.188-1.229,4.301-1.852,6.338
			s-1.216,3.968-1.779,5.792c-0.562,1.824-1.086,3.41-1.569,4.758c-0.099,1.141-0.179,2.202-0.242,3.188s-0.097,2.008-0.097,3.071
			c0,0.83,0.019,1.51,0.058,2.041c0.039,0.53,0.11,0.952,0.215,1.263c0.104,0.312,0.246,0.525,0.429,0.642
			c0.182,0.117,0.414,0.176,0.701,0.176c0.52,0,1.174-0.138,1.967-0.409c0.791-0.272,1.636-0.623,2.531-1.051
			c0.896-0.43,1.83-0.909,2.805-1.441c0.974-0.532,1.908-1.064,2.804-1.597s1.733-1.02,2.513-1.46
			c0.778-0.441,1.428-0.806,1.947-1.09L413.271,72.329z M394.966,21.972c-0.915-0.259-1.86-0.448-2.841-0.564
			c-0.98-0.117-1.928-0.176-2.842-0.176c-2.102,0-4.176,0.403-6.225,1.208c-2.05,0.806-4.039,1.902-5.973,3.291
			c-1.934,1.39-3.773,3.025-5.523,4.907c-1.752,1.883-3.386,3.908-4.901,6.076c-1.519,2.168-2.886,4.42-4.104,6.757
			c-1.219,2.336-2.27,4.667-3.15,6.991c-0.883,2.324-1.557,4.583-2.023,6.775c-0.467,2.195-0.699,4.214-0.699,6.057
			c0,4.544,0.732,7.822,2.2,9.834c1.468,2.013,3.745,3.019,6.835,3.019c1.922,0,3.745-0.401,5.473-1.208
			c1.727-0.804,3.33-1.862,4.811-3.174c1.479-1.311,2.836-3.012,4.068-5.102c1.234-2.09,2.312-3.979,3.232-5.667
			c0.922-1.688,1.682-3.317,2.278-4.889c0.599-1.569,1.024-2.927,1.285-4.069L394.966,21.972z"/>
		<path fill="#D7E4E9" d="M406.066,82.52c0-0.13,0.031-0.92,0.098-2.369c0.064-1.449,0.205-3.379,0.422-5.788
			c0.217-2.408,0.469-5.192,0.752-8.353c0.284-3.16,0.686-6.491,1.201-9.994c0.518-3.502,1.127-7.095,1.83-10.779
			c0.701-3.684,1.538-7.27,2.506-10.76c0.967-3.489,2.075-6.778,3.32-9.868c1.246-3.089,2.646-5.791,4.195-8.104
			c1.553-2.314,3.281-4.144,5.191-5.487c1.908-1.344,4.003-2.017,6.284-2.017c0.881,0,1.807,0.151,2.778,0.455
			s1.857,0.797,2.661,1.479c0.804,0.684,1.471,1.587,2.001,2.712c0.531,1.125,0.798,2.51,0.798,4.152
			c0,1.529-0.248,3.285-0.742,5.268c-0.494,1.983-1.188,4.103-2.084,6.356c-0.896,2.254-1.95,4.6-3.166,7.036
			c-1.216,2.436-2.545,4.865-3.988,7.289c-1.442,2.423-2.959,4.807-4.549,7.152s-3.213,4.542-4.869,6.59l-0.078,0.621
			c0.548-0.227,0.958-0.375,1.231-0.442c0.272-0.068,0.561-0.104,0.86-0.104c0.361,0,0.654,0.029,0.877,0.085
			c0.224,0.058,0.425,0.119,0.605,0.188c0.181,0.068,0.368,0.131,0.562,0.188c0.194,0.058,0.432,0.085,0.709,0.085
			c2.57,0,4.844-0.304,6.815-0.913c1.974-0.608,3.635-1.289,4.985-2.041c1.584-0.855,2.96-1.854,4.129-2.993l-0.857,9.489
			c-1.714,0.944-3.505,1.68-5.374,2.204c-1.87,0.524-3.597,0.918-5.181,1.182c-1.844,0.288-3.697,0.472-5.562,0.55
			c1.001,1.711,1.905,3.486,2.713,5.325c0.695,1.581,1.328,3.35,1.899,5.306c0.57,1.957,0.855,3.932,0.855,5.928
			c0,0.232-0.035,0.726-0.104,1.478c-0.069,0.75-0.186,1.671-0.349,2.759s-0.396,2.292-0.693,3.615
			c-0.299,1.32-0.687,2.655-1.162,4.003c-0.476,1.347-1.054,2.648-1.732,3.906c-0.681,1.256-1.476,2.369-2.386,3.343
			c-0.911,0.972-1.958,1.755-3.14,2.352c-1.185,0.597-2.522,0.895-4.017,0.895c-1.42,0-2.657-0.323-3.715-0.972
			c-1.059-0.647-1.961-1.521-2.709-2.621c-0.748-1.1-1.373-2.382-1.875-3.844c-0.504-1.464-0.896-3.01-1.182-4.641
			c-0.283-1.631-0.482-3.294-0.6-4.989C406.124,85.736,406.066,84.099,406.066,82.52z M416.367,62.049
			c-0.104,0-0.223,0.297-0.354,0.89c-0.132,0.594-0.234,1.338-0.306,2.235c-0.071,0.896-0.174,2.174-0.306,3.831
			c-0.133,1.658-0.241,3.016-0.327,4.074c-0.087,1.059-0.155,2.062-0.207,3.01c-0.054,0.948-0.078,1.694-0.078,2.24
			c0,3.815,0.071,6.854,0.216,9.112c0.145,2.26,0.326,3.974,0.549,5.142s0.471,1.927,0.744,2.277
			c0.273,0.352,0.555,0.526,0.844,0.526c0.887,0,1.6-0.403,2.135-1.208s0.939-1.824,1.215-3.057
			c0.273-1.233,0.457-2.583,0.549-4.051c0.091-1.467,0.138-2.876,0.138-4.226c0-0.909-0.026-2.025-0.079-3.349
			c-0.053-1.324-0.132-2.754-0.236-4.289s-0.321-3.271-0.649-5.207c-0.329-1.938-0.789-3.393-1.38-4.366
			c-0.592-0.975-1.072-1.816-1.439-2.524C417.023,62.404,416.684,62.049,416.367,62.049z M426.224,21.339
			c-1.527,3.447-2.784,6.726-3.768,9.835c-0.901,2.851-1.577,5.377-2.026,7.58c-0.451,2.203-0.771,4.141-0.964,5.812
			c-0.19,1.672-0.379,3.221-0.562,4.646c1.666-2.98,3.386-5.883,5.162-8.708c1.774-2.825,3.327-5.475,4.659-7.949
			c1.333-2.475,2.473-4.866,3.417-7.172c0.946-2.306,1.419-3.952,1.419-4.938c0-1.374-0.192-2.377-0.577-3.013
			c-0.387-0.635-1.028-0.953-1.928-0.953c-1.42,0-2.376,0.312-2.867,0.934C427.809,17.932,427.152,19.241,426.224,21.339z"/>
		<path fill="#D7E4E9" d="M450.835,81.053c-2.425,0-4.546-0.449-6.364-1.348c-1.817-0.898-3.334-2.107-4.546-3.626
			c-1.212-1.52-2.121-3.277-2.728-5.272c-0.605-1.996-0.909-4.09-0.909-6.284c0-1.435,0.271-3.145,0.812-5.131
			c0.543-1.985,1.104-3.748,1.687-5.286c0.58-1.537,1.311-3.004,2.188-4.4c0.877-1.397,1.904-2.626,3.079-3.69
			c1.177-1.062,2.492-1.909,3.952-2.537c1.459-0.628,3.079-0.941,4.861-0.941c1.455,0,2.807,0.233,4.055,0.7
			c1.247,0.468,2.333,1.122,3.256,1.965c0.922,0.843,1.645,1.86,2.163,3.054c0.521,1.192,0.78,2.528,0.78,4.006
			c0,1.574-0.526,3.339-1.581,5.293c-1.054,1.955-2.283,3.631-3.688,5.027c-1.404,1.396-3.076,2.64-5.016,3.731
			c-1.938,1.092-4.039,1.942-6.303,2.553c0.391,0.686,0.774,1.257,1.152,1.714s0.763,0.812,1.152,1.065
			c0.393,0.254,0.802,0.433,1.231,0.533c0.429,0.101,0.893,0.152,1.388,0.152c1.559,0,3.2-0.305,4.927-0.914
			c1.728-0.609,3.408-1.371,5.044-2.285c1.637-0.914,3.182-1.911,4.636-2.989c1.453-1.079,2.688-2.101,3.699-3.065l5.023,5.103
			c-2.285,2.434-4.712,4.586-7.283,6.458c-1.116,0.803-2.315,1.592-3.603,2.367c-1.285,0.774-2.636,1.464-4.051,2.064
			c-1.416,0.602-2.882,1.083-4.4,1.443C453.934,80.873,452.394,81.053,450.835,81.053z M445.636,62.504
			c0.938,0,1.961-0.234,3.068-0.704c1.106-0.47,2.137-1.073,3.089-1.809c0.951-0.736,1.883-1.728,2.795-2.971
			c0.912-1.244,1.368-2.271,1.368-3.085c0-1.142-0.215-2.082-0.646-2.817c-0.431-0.736-0.958-1.104-1.584-1.104
			c-1.12,0-2.077,0.203-2.873,0.609c-0.795,0.406-1.459,0.933-1.993,1.581c-0.534,0.646-0.964,1.383-1.29,2.208
			c-0.326,0.824-0.704,1.847-1.135,3.064c-0.43,1.219-0.671,2.222-0.723,3.008C445.661,61.273,445.636,61.945,445.636,62.504z"/>
		<path fill="#D7E4E9" d="M480.2,81.053c-2.425,0-4.546-0.449-6.364-1.348s-3.334-2.107-4.546-3.626
			c-1.212-1.52-2.121-3.277-2.728-5.272c-0.605-1.996-0.909-4.09-0.909-6.284c0-1.435,0.271-3.145,0.812-5.131
			c0.543-1.985,1.104-3.748,1.687-5.286c0.58-1.537,1.311-3.004,2.188-4.4c0.877-1.397,1.904-2.626,3.079-3.69
			c1.176-1.062,2.492-1.909,3.952-2.537c1.459-0.628,3.079-0.941,4.861-0.941c1.454,0,2.807,0.233,4.055,0.7
			c1.247,0.468,2.333,1.122,3.256,1.965c0.922,0.843,1.645,1.86,2.163,3.054c0.521,1.192,0.78,2.528,0.78,4.006
			c0,1.574-0.526,3.339-1.581,5.293c-1.055,1.955-2.283,3.631-3.688,5.027c-1.404,1.396-3.077,2.64-5.016,3.731
			c-1.939,1.092-4.039,1.942-6.303,2.553c0.391,0.686,0.774,1.257,1.152,1.714c0.377,0.457,0.763,0.812,1.152,1.065
			c0.392,0.254,0.802,0.433,1.23,0.533c0.43,0.101,0.894,0.152,1.389,0.152c1.559,0,3.2-0.305,4.927-0.914s3.408-1.371,5.044-2.285
			s3.181-1.911,4.635-2.989c1.454-1.079,2.688-2.101,3.7-3.065l5.023,5.103c-2.285,2.434-4.712,4.586-7.283,6.458
			c-1.116,0.803-2.316,1.592-3.604,2.367c-1.284,0.774-2.635,1.464-4.05,2.064c-1.416,0.602-2.882,1.083-4.4,1.443
			C483.299,80.873,481.759,81.053,480.2,81.053z M475.001,62.504c0.938,0,1.961-0.234,3.068-0.704
			c1.106-0.47,2.137-1.073,3.089-1.809c0.951-0.736,1.883-1.728,2.795-2.971c0.912-1.244,1.368-2.271,1.368-3.085
			c0-1.142-0.215-2.082-0.646-2.817c-0.431-0.736-0.958-1.104-1.584-1.104c-1.121,0-2.078,0.203-2.873,0.609
			s-1.459,0.933-1.994,1.581c-0.533,0.646-0.964,1.383-1.29,2.208c-0.325,0.824-0.703,1.847-1.134,3.064
			c-0.43,1.219-0.671,2.222-0.723,3.008C475.026,61.273,475.001,61.945,475.001,62.504z"/>
	</g>
	<g>
		<g>
			<path fill="#EF4640" d="M70.476,61.443c-1.272,0.564-2.506,1.312-3.7,2.239c-1.194,0.927-2.402,1.942-3.622,3.045
				c-1.221,1.104-2.487,2.267-3.797,3.489c-1.312,1.224-2.727,2.362-4.245,3.415c-1.519,1.053-3.174,2.059-4.966,3.018
				c-1.792,0.958-3.771,1.8-5.939,2.521c-2.168,0.721-4.557,1.295-7.166,1.722c-2.609,0.426-5.498,0.64-8.666,0.64
				c-3.505,0-6.667-0.698-9.483-2.095c-2.817-1.396-5.226-3.278-7.225-5.647c-2-2.37-3.538-5.123-4.615-8.262
				c-1.078-3.138-1.616-6.436-1.616-9.894c0-2.405,0.259-4.987,0.779-7.745c0.519-2.758,1.266-5.568,2.24-8.432
				s2.162-5.72,3.563-8.569c1.402-2.849,2.992-5.582,4.771-8.196c1.778-2.613,3.732-5.04,5.861-7.274
				c2.129-2.235,4.401-4.184,6.815-5.843c2.415-1.66,4.959-2.961,7.634-3.902c2.674-0.941,5.452-1.412,8.334-1.412
				c1.869,0,3.764,0.331,5.686,0.993c1.921,0.662,3.647,1.682,5.18,3.058c1.532,1.376,2.785,3.116,3.759,5.219
				c0.974,2.104,1.46,4.583,1.46,7.438c0,1.922-0.306,3.862-0.916,5.823c-0.61,1.96-1.448,3.843-2.512,5.646
				c-1.065,1.806-2.317,3.499-3.758,5.083s-2.993,2.954-4.654,4.109c-1.662,1.156-3.388,2.071-5.18,2.746
				c-1.792,0.676-3.583,1.013-5.375,1.013c-2.363,0-4.128-0.317-5.296-0.954c-1.168-0.636-1.753-1.551-1.753-2.746
				c0-0.208-0.006-0.454-0.019-0.739c-0.014-0.285-0.02-0.584-0.02-0.896c0-0.467,0.025-0.955,0.078-1.46
				c0.052-0.506,0.156-0.967,0.312-1.383c0.156-0.415,0.383-0.753,0.682-1.014c0.298-0.259,0.707-0.389,1.227-0.389
				c0.312,0,0.584,0.045,0.818,0.136c0.233,0.092,0.493,0.188,0.779,0.292c0.285,0.104,0.629,0.202,1.032,0.292
				c0.402,0.092,0.915,0.137,1.538,0.137c1.662,0,3.343-0.363,5.043-1.09c1.701-0.728,3.233-1.753,4.596-3.077
				c1.363-1.324,2.479-2.901,3.35-4.732c0.87-1.831,1.305-3.849,1.305-6.056c0-1.168-0.156-2.278-0.467-3.33
				s-0.818-1.973-1.519-2.766c-0.701-0.792-1.604-1.428-2.707-1.907c-1.104-0.48-2.448-0.722-4.031-0.722
				c-1.869,0-3.694,0.413-5.472,1.238c-1.779,0.825-3.486,1.944-5.122,3.358c-1.636,1.415-3.188,3.09-4.654,5.027
				c-1.467,1.938-2.823,4.014-4.07,6.227c-1.246,2.212-2.37,4.517-3.369,6.914c-1,2.396-1.85,4.785-2.551,7.168
				s-1.24,4.693-1.616,6.933s-0.564,4.302-0.564,6.188c0,2.77,0.331,5.184,0.993,7.24c0.662,2.058,1.603,3.771,2.823,5.144
				c1.22,1.372,2.713,2.394,4.479,3.064c1.765,0.674,3.751,1.01,5.959,1.01c2.751,0,5.316-0.356,7.692-1.069
				c2.375-0.712,4.641-1.647,6.796-2.804s4.238-2.461,6.251-3.913c2.012-1.452,4.024-2.911,6.037-4.376
				c2.012-1.466,4.063-2.864,6.153-4.195s4.304-2.454,6.641-3.369L70.476,61.443L70.476,61.443z"/>
			<path fill="#EF4640" d="M89.364,44.025c0.753,1.507,1.318,3.097,1.694,4.771s0.565,3.562,0.565,5.667
				c0,1.532-0.169,3.077-0.506,4.634c-0.338,1.558-0.825,3.064-1.46,4.519c-0.637,1.453-1.416,2.816-2.337,4.089
				c-0.922,1.271-1.974,2.375-3.155,3.311c-1.182,0.936-2.473,1.674-3.875,2.22c-1.402,0.545-2.896,0.818-4.479,0.818
				c-2.285,0-4.239-0.5-5.861-1.5c-1.623-0.999-2.954-2.304-3.992-3.914c-1.039-1.609-1.798-3.427-2.278-5.453
				c-0.48-2.024-0.72-4.076-0.72-6.152c0-3.428,0.428-6.381,1.285-8.86s2.083-4.635,3.68-6.465c1.597-1.831,3.55-3.271,5.862-4.323
				c2.311-1.052,4.907-1.577,7.789-1.577c2.466,0,4.777,0.383,6.933,1.149c2.155,0.766,4.173,1.792,6.056,3.077
				c1.882,1.284,3.635,2.9,5.258,4.849c1.622,1.947,3.135,3.804,4.537,5.569l-0.74,5.491c-0.701-0.935-1.649-1.946-2.843-3.037
				c-1.195-1.091-2.46-2.299-3.797-3.622c-1.337-1.324-2.655-2.447-3.953-3.369c-1.298-0.921-2.415-1.694-3.349-2.317L89.364,44.025
				z M77.33,66.576c0.882,0,1.739-0.448,2.57-1.345c0.831-0.896,1.558-2.024,2.181-3.388s1.123-3.012,1.5-4.946
				c0.376-1.934,0.564-3.653,0.564-5.161c0-1.193-0.091-2.304-0.272-3.329c-0.182-1.025-0.455-1.915-0.818-2.668
				c-0.364-0.754-0.831-1.351-1.402-1.793c-0.572-0.44-1.26-0.661-2.064-0.661c-1.065,0-2.078,0.455-3.038,1.362
				c-0.961,0.909-1.805,2.071-2.532,3.485c-0.727,1.416-1.298,2.979-1.713,4.693c-0.416,1.713-0.624,3.647-0.624,5.803
				c0,1.091,0.104,2.117,0.312,3.077c0.208,0.961,0.532,1.798,0.974,2.512c0.441,0.714,1.025,1.285,1.752,1.714
				C75.447,66.361,76.317,66.576,77.33,66.576z"/>
			<path fill="#EF4640" d="M99.023,65.914c0-1.714,0.103-3.693,0.312-5.939c0.208-2.246,0.467-4.712,0.779-7.399
				s0.662-5.108,1.051-7.264c0.39-2.154,0.766-3.999,1.13-5.53c0.285-1.194,0.837-2.194,1.655-2.999
				c0.818-0.806,1.928-1.208,3.33-1.208c1.402,0,2.376,0.428,2.921,1.284c0.545,0.857,0.818,2,0.818,3.428
				c0,0.39-0.039,0.916-0.117,1.577c-0.078,0.662-0.175,1.39-0.292,2.182c-0.117,0.792-0.241,1.609-0.37,2.454
				c-0.13,0.844-0.253,1.805-0.37,2.882c-0.117,1.078-0.214,1.883-0.292,2.415s-0.117,0.89-0.117,1.071h0.779
				c0.156-0.285,0.402-0.746,0.74-1.383c0.337-0.636,0.727-1.551,1.168-2.746c0.441-1.194,0.916-2.252,1.422-3.174
				c0.506-0.921,0.979-1.804,1.421-2.647c0.441-0.843,0.843-1.59,1.208-2.239c0.363-0.649,0.636-1.129,0.818-1.441
				c0.831-1.401,1.778-2.361,2.843-2.882c1.064-0.519,2.246-0.778,3.544-0.778c1.298,0,2.33,0.545,3.096,1.636
				c0.766,1.09,1.149,2.597,1.149,4.518c0,0.286-0.059,0.768-0.175,1.441c-0.117,0.675-0.267,1.479-0.448,2.415
				c-0.182,0.935-0.384,2.142-0.604,3.622c-0.221,1.479-0.422,2.804-0.604,3.973c-0.182,1.168-0.331,2.324-0.448,3.466
				c-0.117,1.144-0.175,2.194-0.175,3.155c0,1.61,0.201,2.935,0.604,3.973c0.402,1.039,1.032,1.559,1.889,1.559
				c0.312,0,0.753-0.117,1.324-0.352c0.857-0.312,1.402-0.584,1.636-0.817c1.143-0.882,1.739-1.312,1.792-1.285
				c0.078,0.025,0.948-0.493,2.61-1.559c2.077-1.323,4.557-2.946,7.438-4.867l-0.039,8.724l-1.947,1.48
				c-0.156,0.13-1.376,0.805-3.661,2.024c-3.298,1.767-5.362,2.83-6.193,3.193c-2.025,0.909-3.285,1.428-3.778,1.558
				c-1.298,0.416-2.662,0.623-4.089,0.623c-1.428,0-2.628-1.032-3.603-3.096c-0.974-2.064-1.46-5.083-1.46-9.056
				c0-1.558,0.104-3.238,0.312-5.043c0.208-1.804,0.468-3.744,0.779-5.821h-0.623l-10.204,20.252
				c-0.545,1.09-1.129,1.817-1.752,2.181c-0.649,0.389-1.402,0.584-2.259,0.584c-1.065,0-1.921-0.227-2.57-0.682
				c-0.649-0.454-1.149-1.064-1.5-1.831c-0.351-0.766-0.584-1.636-0.701-2.609C99.082,67.958,99.023,66.952,99.023,65.914z"/>
			<path fill="#EF4640" d="M160.714,44.025c0.753,1.507,1.318,3.097,1.694,4.771s0.565,3.562,0.565,5.667
				c0,1.532-0.169,3.077-0.506,4.634c-0.338,1.558-0.825,3.064-1.46,4.519c-0.637,1.453-1.416,2.816-2.337,4.089
				c-0.922,1.271-1.974,2.375-3.155,3.311c-1.182,0.936-2.473,1.674-3.875,2.22c-1.402,0.545-2.896,0.818-4.479,0.818
				c-2.285,0-4.239-0.5-5.861-1.5c-1.623-0.999-2.954-2.304-3.992-3.914c-1.039-1.609-1.798-3.427-2.278-5.453
				c-0.48-2.024-0.72-4.076-0.72-6.152c0-3.428,0.428-6.381,1.285-8.86c0.857-2.479,2.083-4.635,3.68-6.465
				c1.597-1.831,3.55-3.271,5.862-4.323c2.311-1.052,4.907-1.577,7.789-1.577c2.466,0,4.777,0.383,6.933,1.149
				c2.155,0.766,4.173,1.792,6.056,3.077c1.882,1.284,3.635,2.9,5.258,4.849c1.622,1.947,3.135,3.804,4.537,5.569l-0.74,5.491
				c-0.701-0.935-1.649-1.946-2.843-3.037c-1.195-1.091-2.46-2.299-3.797-3.622c-1.337-1.324-2.655-2.447-3.953-3.369
				c-1.298-0.921-2.415-1.694-3.349-2.317L160.714,44.025z M148.68,66.576c0.882,0,1.739-0.448,2.57-1.345
				c0.831-0.896,1.558-2.024,2.181-3.388s1.123-3.012,1.5-4.946c0.376-1.934,0.564-3.653,0.564-5.161
				c0-1.193-0.091-2.304-0.272-3.329c-0.182-1.025-0.455-1.915-0.818-2.668c-0.364-0.754-0.831-1.351-1.402-1.793
				c-0.572-0.44-1.26-0.661-2.064-0.661c-1.065,0-2.078,0.455-3.038,1.362c-0.961,0.909-1.805,2.071-2.532,3.485
				c-0.727,1.416-1.298,2.979-1.713,4.693c-0.416,1.713-0.624,3.647-0.624,5.803c0,1.091,0.104,2.117,0.312,3.077
				c0.208,0.961,0.532,1.798,0.974,2.512c0.441,0.714,1.025,1.285,1.752,1.714S147.667,66.576,148.68,66.576z"/>
			<path fill="#EF4640" d="M170.373,65.914c0-1.144,0.064-2.474,0.194-3.992c0.13-1.52,0.305-3.122,0.526-4.811
				c0.22-1.687,0.48-3.407,0.779-5.159c0.298-1.752,0.682-3.622,1.149-5.608c0.468-1.986,0.87-3.642,1.208-4.965
				c0.337-1.324,0.675-2.415,1.013-3.271c0.208-0.57,0.415-1.024,0.623-1.362c0.208-0.337,0.448-0.604,0.721-0.799
				c0.272-0.194,0.609-0.324,1.012-0.39c0.402-0.063,0.902-0.097,1.5-0.097c0.675,0,1.201,0.033,1.578,0.097
				c0.376,0.065,0.655,0.221,0.837,0.467c0.181,0.247,0.292,0.604,0.331,1.071c0.039,0.467,0.059,1.104,0.059,1.908
				c0,0.961-0.065,2.324-0.195,4.089c-0.13,1.766-0.169,3.311-0.117,4.635h0.428c0.52-1.038,1.168-2.4,1.948-4.089
				c0.779-1.688,1.597-3.09,2.454-4.207c0.856-1.116,1.83-2.057,2.921-2.823c1.09-0.766,2.35-1.148,3.778-1.148
				c0.493,0,0.974,0.084,1.441,0.253c0.467,0.169,0.876,0.409,1.227,0.721c0.351,0.312,0.629,0.695,0.837,1.149
				c0.208,0.455,0.312,0.967,0.312,1.538c0,0.441-0.065,1.059-0.194,1.85c-0.13,0.792-0.338,1.824-0.624,3.096
				c-0.286,1.272-0.493,2.317-0.623,3.136c-0.13,0.817-0.195,1.5-0.195,2.045c0,0.935,0.091,1.713,0.273,2.336
				c0.181,0.623,0.421,1.124,0.72,1.5c0.298,0.377,0.636,0.643,1.013,0.798c0.376,0.156,0.772,0.233,1.188,0.233
				c1.168,0,2.375-0.259,3.622-0.778c1.246-0.521,2.388-1.104,3.427-1.753c1.22-0.752,2.415-1.609,3.583-2.57l-0.584,9.113
				c-0.675,0.441-1.441,0.935-2.298,1.479c-0.856,0.545-1.772,1.06-2.746,1.539c-0.974,0.48-1.986,0.883-3.038,1.207
				c-1.052,0.325-2.123,0.487-3.213,0.487c-1.947,0-3.519-0.396-4.712-1.188c-1.194-0.792-2.142-1.831-2.843-3.115
				c-0.701-1.285-1.221-2.728-1.558-4.323c-0.338-1.597-0.61-3.213-0.818-4.85h-0.623l-6.972,19.435
				c-0.364,1.013-0.708,1.85-1.032,2.512c-0.325,0.662-0.656,1.201-0.993,1.616c-0.338,0.416-0.701,0.708-1.091,0.876
				c-0.389,0.169-0.818,0.253-1.285,0.253c-1.065,0-1.921-0.227-2.57-0.682c-0.649-0.454-1.149-1.064-1.5-1.831
				c-0.351-0.766-0.584-1.637-0.701-2.609C170.431,67.958,170.373,66.952,170.373,65.914z"/>
			<path fill="#EF4640" d="M237.308,70.233c-0.104,0.78-0.351,1.417-0.739,1.91c-0.389,0.494-0.856,0.883-1.4,1.169
				s-1.128,0.488-1.75,0.604c-0.623,0.117-1.219,0.175-1.789,0.175c-0.674,0-1.329-0.071-1.964-0.214
				c-0.636-0.144-1.2-0.363-1.692-0.662c-0.493-0.298-0.882-0.662-1.167-1.09c-0.286-0.43-0.429-0.916-0.429-1.46
				c0-1.064,0.052-2.045,0.156-2.94s0.259-1.798,0.467-2.707c0.664-3.04,1.281-5.866,1.85-8.475c0.57-2.609,1.228-5.059,1.976-7.344
				c0.747-2.287,1.247-4.534,1.5-6.741s0.506-4.414,0.759-6.621s0.359-4.505,0.318-6.896c-0.042-2.391-0.085-4.95-0.133-7.683
				c0-0.236,0-0.538,0-0.905c0-0.368-0.037-0.714-0.111-1.039c-0.074-0.323-0.203-0.604-0.388-0.837
				c-0.185-0.232-0.462-0.35-0.831-0.35c-0.592,0-1.313,0.214-2.163,0.643c-0.85,0.429-1.743,1.006-2.679,1.733
				c-0.937,0.727-1.873,1.577-2.809,2.551s-1.798,2.02-2.587,3.135c-0.148,0.391-0.382,0.669-0.702,0.837
				c-0.32,0.169-0.677,0.253-1.072,0.253c-0.123,0-0.252-0.109-0.388-0.33c-0.135-0.221-0.258-0.487-0.37-0.799
				c-0.11-0.312-0.203-0.643-0.277-0.992c-0.073-0.352-0.11-0.668-0.11-0.955c0-0.156,0.052-0.285,0.156-0.39
				c0.935-3.062,1.992-5.628,3.174-7.691c1.181-2.064,2.428-3.713,3.739-4.946s2.648-2.109,4.012-2.629
				c1.363-0.52,2.668-0.779,3.914-0.779c1.609,0,2.946,0.306,4.011,0.915c1.064,0.61,1.909,1.467,2.532,2.571
				c0.623,1.104,1.058,2.434,1.305,3.992c0.247,1.558,0.37,3.285,0.37,5.18c0,1.454-0.143,3.16-0.427,5.118
				c-0.284,1.958-0.583,4.02-0.896,6.185c-0.313,2.166-0.713,4.314-1.199,6.446c-0.486,2.131-0.957,4.121-1.413,5.97
				c0.841-3.453,1.833-6.77,2.976-9.951c1.144-3.18,2.392-6.152,3.746-8.918c1.354-2.765,2.792-5.271,4.318-7.517
				c1.524-2.246,3.095-4.173,4.71-5.784c1.617-1.608,3.252-2.855,4.91-3.739c1.654-0.882,3.299-1.323,4.928-1.323
				c1.193,0,2.298,0.26,3.312,0.778c1.013,0.521,1.881,1.324,2.606,2.415c0.728,1.09,1.291,2.468,1.695,4.128
				c0.402,1.662,0.604,3.637,0.604,5.92c0,0.208-0.021,0.533-0.06,0.975s-0.092,0.948-0.156,1.519
				c-0.063,0.571-0.143,1.188-0.231,1.851c-0.092,0.662-0.176,1.317-0.254,1.967c-0.209,1.558-0.428,3.246-0.662,5.062l0.818-0.039
				c1.01-3.842,2.254-7.296,3.729-10.359c1.479-3.063,3.137-5.667,4.978-7.81c1.84-2.142,3.821-3.783,5.946-4.927
				c2.125-1.142,4.328-1.713,6.609-1.713c1.57,0,2.969,0.467,4.191,1.402c1.225,0.935,2.248,2.201,3.072,3.797
				c0.823,1.596,1.455,3.466,1.895,5.607c0.438,2.143,0.656,4.407,0.656,6.797c0,2.232-0.219,4.569-0.656,7.011
				s-0.871,4.869-1.305,7.283c-0.435,2.414-0.861,4.788-1.279,7.122c-0.42,2.334-0.816,4.546-1.191,6.638
				c-0.377,2.092-0.719,4.017-1.025,5.774c-0.309,1.76-0.463,3.091-0.463,3.993c0,1.134,0.277,1.955,0.832,2.464
				c0.556,0.51,1.361,0.765,2.418,0.765c0.599,0,1.228-0.162,1.89-0.487c0.662-0.324,1.323-0.752,1.985-1.285
				c0.662-0.532,1.318-1.142,1.968-1.831c0.649-0.688,1.272-1.395,1.87-2.123c1.375-1.661,2.738-3.568,4.089-5.725
				c0,0.026,0.116,0.299,0.352,0.818c0.183,0.441,0.48,1.194,0.896,2.259c0.416,1.064,1,2.597,1.754,4.596
				c-1.299,2.285-2.637,4.22-4.012,5.803c-1.377,1.584-2.779,2.876-4.207,3.875c-1.428,1-2.875,1.721-4.342,2.162
				c-1.468,0.442-2.925,0.662-4.367,0.662c-1.402,0-2.771-0.247-4.107-0.74c-1.336-0.492-2.521-1.227-3.561-2.2
				c-1.041-0.975-1.869-2.182-2.49-3.622c-0.623-1.441-0.936-3.097-0.936-4.967c0-0.208,0.008-0.428,0.02-0.661
				c0.014-0.233,0.033-0.468,0.059-0.701c0.104-1.739,0.334-3.604,0.691-5.591c0.355-1.987,0.725-4.047,1.107-6.178
				c0.381-2.13,0.77-4.293,1.161-6.488c0.394-2.195,0.785-4.385,1.177-6.566c0.391-2.183,0.771-4.326,1.146-6.432
				c0.373-2.105,0.56-3.942,0.56-5.512c0-1.168-0.039-2.226-0.117-3.174s-0.236-1.753-0.472-2.415s-0.573-1.174-1.018-1.538
				c-0.445-0.362-1.033-0.545-1.767-0.545c-1.471,0-2.856,0.479-4.162,1.437c-1.305,0.958-2.539,2.276-3.705,3.958
				s-2.256,3.674-3.268,5.977c-1.014,2.303-1.971,4.793-2.873,7.471c-0.9,2.678-1.666,5.482-2.297,8.414
				c-0.629,2.932-1.32,5.967-2.074,9.104s-1.332,6.107-1.731,8.91c-0.402,2.802-0.855,5.496-1.359,8.082
				c-0.18,0.728-0.457,1.345-0.832,1.852c-0.373,0.507-0.803,0.917-1.291,1.229c-0.485,0.312-1.002,0.539-1.545,0.682
				s-1.086,0.214-1.631,0.214s-1.082-0.104-1.613-0.312c-0.53-0.208-0.997-0.539-1.399-0.993c-0.4-0.454-0.726-1.032-0.971-1.733
				c-0.246-0.701-0.369-1.558-0.369-2.571c-0.502-0.675-0.597-1.839-0.283-3.494s0.693-3.621,1.139-5.899
				c0.446-2.278,0.965-4.819,1.557-7.625c0.594-2.805,1.133-5.603,1.619-8.392s1.006-5.574,1.557-8.354
				c0.552-2.778,0.826-5.337,0.826-7.674c0-1.609-0.041-3.05-0.121-4.323c-0.08-1.271-0.268-2.35-0.563-3.231
				c-0.295-0.884-0.719-1.559-1.271-2.025c-0.553-0.467-1.285-0.701-2.198-0.701c-0.755,0-1.613,0.494-2.582,1.48
				c-0.97,0.985-2.011,2.35-3.128,4.089c-1.114,1.739-2.265,3.784-3.447,6.133c-1.184,2.35-2.361,4.887-3.53,7.613
				c-1.169,2.727-2.299,5.576-3.388,8.548c-1.089,2.973-2.003,5.968-2.741,8.988c-0.738,3.02-1.454,5.95-2.148,8.793
				C238.536,65.212,237.895,67.833,237.308,70.233z"/>
			<path fill="#EF4640" d="M321.229,74.053c-2.403,0-4.515-0.441-6.33-1.324c-1.816-0.882-3.34-2.063-4.567-3.544
				c-1.228-1.479-2.156-3.193-2.783-5.141c-0.628-1.947-0.94-3.974-0.94-6.076c0-1.505,0.261-3.311,0.783-5.414
				c0.521-2.103,1.09-3.938,1.702-5.511c0.613-1.571,1.37-3.07,2.271-4.499c0.899-1.427,1.944-2.68,3.132-3.758
				c1.188-1.077,2.513-1.935,3.975-2.57c1.463-0.636,3.066-0.954,4.815-0.954c1.573,0,3.03,0.229,4.371,0.682
				c1.341,0.455,2.487,1.084,3.438,1.89c0.953,0.805,1.699,1.759,2.238,2.862c0.538,1.104,0.809,2.292,0.809,3.563
				c0,0.883-0.127,1.752-0.381,2.609c-0.253,0.856-0.744,1.862-1.475,3.019s-1.439,1.941-2.128,2.356
				c-0.688,0.416-1.468,0.623-2.339,0.623c-1.313,0-2.161-0.324-2.545-0.975c-0.629-1.012-0.827-1.908-0.596-2.687
				c0.077-0.415,0.311-1.376,0.698-2.882c0.052-0.208,0.063-0.676,0.039-1.402c0-0.623-0.065-1.143-0.194-1.559
				c-0.129-0.414-0.412-0.622-0.853-0.622c-1.06,0-1.965,0.253-2.715,0.76c-0.749,0.506-1.39,1.168-1.919,1.985
				c-0.53,0.818-1.055,1.975-1.57,3.467c-0.518,1.493-0.886,2.746-1.105,3.758c-0.22,1.013-0.354,1.979-0.406,2.901
				c-0.053,0.923-0.077,1.694-0.077,2.317c0,0.936,0.084,1.909,0.252,2.921s0.504,1.941,1.008,2.785s1.156,1.545,1.958,2.103
				c0.803,0.56,1.836,0.838,3.104,0.838c1.246,0,2.621-0.384,4.127-1.149c1.507-0.766,3.02-1.733,4.537-2.902
				c1.521-1.168,2.967-2.454,4.344-3.854c1.375-1.401,2.558-2.727,3.544-3.974l2.688,4.519c-1.947,2.778-4.051,5.258-6.311,7.438
				c-0.961,0.936-2.006,1.845-3.135,2.728c-1.131,0.883-2.312,1.668-3.545,2.355c-1.232,0.688-2.519,1.247-3.854,1.676
				C323.955,73.839,322.602,74.053,321.229,74.053z"/>
			<path fill="#EF4640" d="M406.271,65.329c-0.547,0.571-1.24,1.221-2.084,1.946c-0.845,0.729-1.791,1.46-2.844,2.201
				c-1.052,0.74-2.188,1.46-3.408,2.162c-1.221,0.701-2.467,1.324-3.737,1.869c-1.272,0.545-2.552,0.979-3.837,1.305
				s-2.519,0.487-3.697,0.487c-0.82,0-1.646-0.143-2.479-0.428c-0.832-0.286-1.588-0.812-2.268-1.577
				c-0.68-0.767-1.236-1.824-1.672-3.174c-0.436-1.351-0.653-3.104-0.653-5.259c0-0.908,0.064-1.889,0.192-2.939
				s0.295-2.188,0.5-3.408c-1.454,2.935-3.096,5.745-4.926,8.432c-1.83,2.688-3.776,4.791-5.84,6.311
				c-2.062,1.519-4.197,2.668-6.403,3.447c-2.207,0.778-4.412,1.168-6.618,1.168c-2.415,0-4.707-0.422-6.874-1.267
				c-2.169-0.844-4.084-2.103-5.745-3.777c-1.662-1.675-2.979-3.759-3.953-6.25c-0.974-2.493-1.46-5.843-1.46-10.049
				c0-2.518,0.291-5.153,0.875-7.905c0.583-2.751,1.433-5.53,2.548-8.334c1.115-2.805,2.463-5.582,4.047-8.334
				c1.582-2.752,3.385-5.368,5.406-7.849c2.022-2.479,4.232-4.776,6.633-6.894c2.397-2.116,4.959-3.946,7.683-5.491
				c2.723-1.544,5.588-2.759,8.597-3.642c3.01-0.882,6.135-1.324,9.375-1.324c0.871,0,1.569,0.072,2.096,0.214
				c0.524,0.143,0.922,0.325,1.19,0.545c0.271,0.221,0.442,0.448,0.519,0.683c0.078,0.233,0.116,0.441,0.116,0.622
				c0,0.131-0.007,0.247-0.02,0.352c-0.015,0.104-0.021,0.182-0.021,0.233v0.195c0.709,0.416,1.432,0.668,2.166,0.759
				c0.735,0.092,1.457,0.169,2.166,0.234s1.379,0.201,2.01,0.409c0.629,0.208,1.182,0.617,1.653,1.227
				c0.474,0.61,0.847,1.499,1.122,2.667s0.414,2.752,0.414,4.751c0,1.563-0.135,3.32-0.402,5.274
				c-0.271,1.953-0.646,3.994-1.135,6.123c-0.486,2.128-1.036,4.288-1.646,6.476c-0.61,2.188-1.229,4.301-1.852,6.338
				s-1.216,3.968-1.779,5.792c-0.562,1.824-1.086,3.41-1.569,4.758c-0.099,1.141-0.179,2.202-0.242,3.188s-0.097,2.008-0.097,3.071
				c0,0.83,0.019,1.51,0.058,2.041c0.039,0.53,0.11,0.952,0.215,1.263c0.104,0.312,0.246,0.525,0.429,0.642
				c0.182,0.117,0.414,0.176,0.701,0.176c0.52,0,1.174-0.138,1.967-0.409c0.791-0.272,1.636-0.623,2.531-1.051
				c0.896-0.43,1.83-0.909,2.805-1.441c0.974-0.532,1.908-1.063,2.804-1.597c0.896-0.532,1.733-1.02,2.513-1.46
				c0.778-0.441,1.428-0.806,1.947-1.09L406.271,65.329z M387.966,14.972c-0.915-0.259-1.86-0.448-2.841-0.564
				c-0.98-0.117-1.928-0.176-2.842-0.176c-2.102,0-4.176,0.403-6.225,1.208c-2.05,0.806-4.039,1.902-5.973,3.291
				c-1.934,1.39-3.773,3.025-5.523,4.907c-1.752,1.883-3.386,3.908-4.901,6.076c-1.519,2.168-2.886,4.42-4.104,6.757
				c-1.219,2.336-2.27,4.667-3.15,6.991c-0.883,2.324-1.557,4.583-2.023,6.775c-0.467,2.195-0.699,4.214-0.699,6.057
				c0,4.544,0.732,7.822,2.2,9.834c1.468,2.013,3.745,3.019,6.835,3.019c1.922,0,3.745-0.401,5.473-1.208
				c1.727-0.804,3.33-1.862,4.811-3.174c1.479-1.311,2.836-3.012,4.068-5.102c1.234-2.09,2.312-3.979,3.232-5.667
				c0.922-1.688,1.682-3.317,2.278-4.889c0.599-1.569,1.024-2.927,1.285-4.069L387.966,14.972z"/>
			<path fill="#EF4640" d="M399.066,75.52c0-0.13,0.031-0.92,0.098-2.369c0.064-1.449,0.205-3.379,0.422-5.788
				c0.217-2.408,0.469-5.192,0.752-8.353c0.284-3.16,0.686-6.491,1.201-9.994c0.518-3.502,1.127-7.095,1.83-10.779
				c0.701-3.684,1.538-7.27,2.506-10.76c0.967-3.489,2.075-6.778,3.32-9.868c1.246-3.089,2.646-5.791,4.195-8.104
				c1.553-2.314,3.281-4.144,5.191-5.487c1.908-1.344,4.003-2.017,6.284-2.017c0.881,0,1.807,0.151,2.778,0.455
				s1.857,0.797,2.661,1.479c0.804,0.684,1.471,1.587,2.001,2.712c0.531,1.125,0.798,2.51,0.798,4.152
				c0,1.529-0.248,3.285-0.742,5.268c-0.494,1.983-1.188,4.103-2.084,6.356c-0.896,2.254-1.95,4.6-3.166,7.036
				c-1.216,2.436-2.545,4.865-3.988,7.289c-1.442,2.423-2.959,4.807-4.549,7.152c-1.591,2.346-3.214,4.542-4.869,6.59l-0.078,0.621
				c0.548-0.227,0.958-0.375,1.231-0.442c0.272-0.068,0.561-0.104,0.861-0.104c0.36,0,0.653,0.029,0.877,0.085
				c0.223,0.058,0.424,0.119,0.604,0.188c0.181,0.068,0.368,0.131,0.563,0.188c0.193,0.058,0.43,0.085,0.709,0.085
				c2.569,0,4.843-0.304,6.814-0.913c1.974-0.608,3.635-1.289,4.985-2.041c1.584-0.855,2.96-1.854,4.129-2.993l-0.857,9.489
				c-1.714,0.944-3.505,1.68-5.374,2.204c-1.87,0.524-3.597,0.918-5.181,1.182c-1.844,0.288-3.697,0.472-5.562,0.55
				c1.002,1.711,1.905,3.486,2.713,5.325c0.695,1.581,1.328,3.35,1.899,5.306c0.57,1.957,0.855,3.932,0.855,5.928
				c0,0.232-0.035,0.726-0.104,1.478c-0.069,0.75-0.186,1.671-0.349,2.759s-0.396,2.292-0.693,3.615
				c-0.299,1.32-0.687,2.655-1.162,4.003c-0.476,1.347-1.054,2.648-1.733,3.906c-0.68,1.256-1.475,2.369-2.385,3.343
				c-0.91,0.972-1.957,1.755-3.14,2.352c-1.185,0.597-2.522,0.895-4.017,0.895c-1.42,0-2.657-0.323-3.715-0.972
				c-1.059-0.647-1.961-1.521-2.709-2.621c-0.748-1.1-1.373-2.382-1.875-3.844c-0.504-1.464-0.896-3.01-1.182-4.641
				c-0.283-1.631-0.482-3.294-0.6-4.989C399.124,78.736,399.066,77.099,399.066,75.52z M409.367,55.049
				c-0.104,0-0.223,0.297-0.354,0.89c-0.132,0.594-0.234,1.338-0.306,2.235c-0.071,0.896-0.174,2.174-0.306,3.831
				c-0.133,1.658-0.241,3.016-0.327,4.074c-0.087,1.059-0.155,2.062-0.207,3.01c-0.054,0.948-0.078,1.694-0.078,2.24
				c0,3.815,0.071,6.854,0.216,9.112c0.145,2.26,0.326,3.974,0.549,5.142s0.471,1.927,0.744,2.277
				c0.273,0.352,0.555,0.526,0.844,0.526c0.887,0,1.6-0.403,2.135-1.208s0.939-1.824,1.215-3.057
				c0.273-1.233,0.457-2.583,0.549-4.051c0.091-1.467,0.139-2.876,0.139-4.226c0-0.909-0.027-2.025-0.08-3.349
				c-0.053-1.324-0.132-2.754-0.236-4.289s-0.321-3.271-0.649-5.207c-0.329-1.938-0.789-3.393-1.38-4.366
				c-0.592-0.975-1.072-1.816-1.439-2.524C410.023,55.404,409.684,55.049,409.367,55.049z M419.225,14.339
				c-1.529,3.447-2.785,6.726-3.769,9.835c-0.901,2.851-1.577,5.377-2.026,7.58c-0.451,2.203-0.771,4.141-0.964,5.812
				c-0.19,1.672-0.379,3.221-0.562,4.646c1.666-2.98,3.386-5.883,5.162-8.708c1.774-2.825,3.328-5.475,4.659-7.949
				c1.333-2.475,2.473-4.866,3.417-7.172c0.946-2.306,1.419-3.952,1.419-4.938c0-1.374-0.192-2.377-0.577-3.013
				c-0.387-0.635-1.028-0.953-1.928-0.953c-1.42,0-2.376,0.312-2.867,0.934C420.809,10.932,420.152,12.241,419.225,14.339z"/>
			<path fill="#EF4640" d="M443.835,74.053c-2.425,0-4.546-0.449-6.364-1.348c-1.817-0.898-3.334-2.107-4.546-3.626
				c-1.212-1.52-2.121-3.277-2.728-5.272c-0.605-1.996-0.909-4.09-0.909-6.284c0-1.435,0.271-3.145,0.812-5.131
				c0.543-1.985,1.104-3.748,1.687-5.286c0.58-1.537,1.311-3.004,2.188-4.4c0.877-1.397,1.904-2.626,3.079-3.69
				c1.177-1.062,2.492-1.909,3.952-2.537c1.459-0.628,3.079-0.941,4.861-0.941c1.455,0,2.807,0.233,4.055,0.7
				c1.247,0.468,2.333,1.122,3.256,1.965c0.922,0.843,1.645,1.86,2.163,3.054c0.521,1.192,0.78,2.528,0.78,4.006
				c0,1.574-0.526,3.339-1.581,5.293c-1.054,1.955-2.283,3.631-3.688,5.027c-1.404,1.396-3.076,2.64-5.016,3.731
				c-1.938,1.092-4.039,1.942-6.303,2.553c0.391,0.686,0.774,1.257,1.152,1.714s0.763,0.812,1.152,1.065
				c0.393,0.254,0.802,0.433,1.231,0.533c0.429,0.101,0.893,0.152,1.388,0.152c1.559,0,3.2-0.305,4.927-0.914
				c1.728-0.609,3.408-1.371,5.044-2.285c1.637-0.914,3.182-1.911,4.636-2.989c1.453-1.079,2.688-2.101,3.699-3.065l5.023,5.103
				c-2.285,2.434-4.712,4.586-7.283,6.458c-1.116,0.803-2.315,1.592-3.603,2.367c-1.285,0.774-2.636,1.464-4.051,2.064
				c-1.416,0.602-2.882,1.083-4.4,1.443C446.934,73.873,445.394,74.053,443.835,74.053z M438.636,55.504
				c0.938,0,1.961-0.234,3.068-0.704c1.106-0.47,2.137-1.073,3.089-1.809c0.951-0.736,1.883-1.728,2.795-2.971
				c0.912-1.244,1.368-2.271,1.368-3.085c0-1.142-0.215-2.082-0.646-2.817c-0.431-0.736-0.958-1.104-1.584-1.104
				c-1.12,0-2.077,0.203-2.873,0.609c-0.795,0.406-1.459,0.933-1.993,1.581c-0.534,0.646-0.964,1.383-1.29,2.208
				c-0.326,0.824-0.704,1.847-1.135,3.064c-0.43,1.219-0.671,2.222-0.723,3.008C438.661,54.273,438.636,54.945,438.636,55.504z"/>
			<path fill="#EF4640" d="M473.2,74.053c-2.425,0-4.546-0.449-6.364-1.348s-3.334-2.107-4.546-3.626
				c-1.212-1.52-2.121-3.277-2.728-5.272c-0.605-1.996-0.909-4.09-0.909-6.284c0-1.435,0.271-3.145,0.812-5.131
				c0.543-1.985,1.104-3.748,1.687-5.286c0.58-1.537,1.311-3.004,2.188-4.4c0.877-1.397,1.904-2.626,3.079-3.69
				c1.176-1.062,2.492-1.909,3.952-2.537c1.459-0.628,3.079-0.941,4.861-0.941c1.454,0,2.807,0.233,4.055,0.7
				c1.247,0.468,2.333,1.122,3.256,1.965c0.922,0.843,1.645,1.86,2.163,3.054c0.521,1.192,0.78,2.528,0.78,4.006
				c0,1.574-0.526,3.339-1.581,5.293c-1.055,1.955-2.283,3.631-3.688,5.027c-1.404,1.396-3.077,2.64-5.016,3.731
				c-1.939,1.092-4.039,1.942-6.303,2.553c0.391,0.686,0.774,1.257,1.152,1.714c0.377,0.457,0.763,0.812,1.152,1.065
				c0.392,0.254,0.802,0.433,1.23,0.533c0.43,0.101,0.894,0.152,1.389,0.152c1.559,0,3.2-0.305,4.927-0.914s3.408-1.371,5.044-2.285
				s3.181-1.911,4.635-2.989c1.454-1.079,2.688-2.101,3.7-3.065l5.023,5.103c-2.285,2.434-4.712,4.586-7.283,6.458
				c-1.116,0.803-2.316,1.592-3.604,2.367c-1.284,0.774-2.635,1.464-4.05,2.064c-1.416,0.602-2.882,1.083-4.4,1.443
				C476.299,73.873,474.759,74.053,473.2,74.053z M468.001,55.504c0.938,0,1.961-0.234,3.068-0.704
				c1.106-0.47,2.137-1.073,3.089-1.809c0.951-0.736,1.883-1.728,2.795-2.971c0.912-1.244,1.368-2.271,1.368-3.085
				c0-1.142-0.215-2.082-0.646-2.817c-0.431-0.736-0.958-1.104-1.584-1.104c-1.121,0-2.078,0.203-2.873,0.609
				s-1.459,0.933-1.994,1.581c-0.533,0.646-0.964,1.383-1.29,2.208c-0.325,0.824-0.703,1.847-1.134,3.064
				c-0.43,1.219-0.671,2.222-0.723,3.008C468.026,54.273,468.001,54.945,468.001,55.504z"/>
		</g>
	</g>
</g>
</svg>
