<?xml version="1.0" encoding="utf-8"?>
<!-- Generator: Adobe Illustrator 16.0.0, SVG Export Plug-In . SVG Version: 6.00 Build 0)  -->
<!DOCTYPE svg PUBLIC "-//W3C//DTD SVG 1.1//EN" "http://www.w3.org/Graphics/SVG/1.1/DTD/svg11.dtd">
<svg version="1.1" id="Layer_1" xmlns="http://www.w3.org/2000/svg" xmlns:xlink="http://www.w3.org/1999/xlink" x="0px" y="0px"
	 width="120px" height="30px" viewBox="0 0 120 30" enable-background="new 0 0 120 30" xml:space="preserve">
<path fill="#E94D8A" d="M75.25,0.84c-7.82,0-14.158,6.34-14.158,14.16c0,7.818,6.338,14.158,14.158,14.158
	c7.818,0,14.158-6.34,14.158-14.157C89.408,7.181,83.068,0.841,75.25,0.84L75.25,0.84z M83.924,8.182
	c1.383,1.754,2.248,3.927,2.355,6.3c-1.6-0.34-3.11-0.506-4.521-0.506h-0.01c-1.134,0-2.196,0.104-3.2,0.28
	c-0.242-0.598-0.49-1.17-0.738-1.72C80.046,11.558,82.188,10.163,83.924,8.182L83.924,8.182z M75.25,3.954
	c2.604,0,4.996,0.91,6.891,2.426c-1.451,1.734-3.363,2.99-5.428,3.877c-1.449-2.807-2.854-4.813-3.811-6.04
	C73.66,4.047,74.441,3.954,75.25,3.954z M70.37,5.104c0.767,0.906,2.302,2.898,3.94,6.01c-3.334,0.992-6.69,1.225-8.726,1.225
	h-0.172c-0.343,0-0.638-0.007-0.884-0.015C65.324,9.152,67.498,6.524,70.37,5.104z M64.204,15c0-0.053,0.002-0.104,0.004-0.16
	c0.313,0.013,0.72,0.022,1.207,0.022h0.004c2.22-0.015,6.097-0.2,10.024-1.44c0.216,0.47,0.429,0.956,0.638,1.462
	c-2.625,0.88-4.69,2.275-6.22,3.668c-1.473,1.343-2.465,2.669-3.047,3.556C65.189,20.182,64.205,17.708,64.204,15L64.204,15z
	 M75.25,26.05c-2.46,0-4.725-0.813-6.562-2.178c0.391-0.644,1.23-1.88,2.562-3.154c1.373-1.315,3.266-2.67,5.738-3.477
	c0.844,2.354,1.604,5.05,2.184,8.083C77.949,25.789,76.632,26.049,75.25,26.05L75.25,26.05z M81.502,24.087
	c-0.562-2.741-1.266-5.215-2.04-7.422c0.718-0.104,1.472-0.162,2.267-0.162h0.03c1.318,0,2.769,0.165,4.337,0.522
	C85.552,19.945,83.857,22.461,81.502,24.087L81.502,24.087z"/>
<path fill="#5FA9DD" d="M28.917,6.706c-0.984,0.438-2.04,0.732-3.15,0.865c1.135-0.68,2-1.754,2.412-3.033
	c-1.063,0.628-2.237,1.085-3.487,1.332c-1.002-1.068-2.426-1.734-4.006-1.734c-3.03,0-5.487,2.46-5.487,5.486
	c0,0.43,0.05,0.85,0.142,1.25c-4.562-0.228-8.605-2.414-11.312-5.734c-0.473,0.81-0.74,1.752-0.74,2.758
	c0,1.903,0.97,3.584,2.44,4.567c-0.9-0.03-1.747-0.277-2.487-0.69v0.07c0,2.657,1.893,4.874,4.4,5.38
	c-0.46,0.123-0.943,0.19-1.444,0.19c-0.356,0-0.7-0.034-1.034-0.103c0.698,2.184,2.726,3.771,5.125,3.813
	c-1.876,1.47-4.244,2.347-6.814,2.347c-0.442,0-0.88-0.027-1.31-0.076c2.43,1.56,5.313,2.47,8.413,2.47
	c10.093,0,15.61-8.36,15.61-15.613L26.17,9.543c1.078-0.77,2.012-1.734,2.745-2.836L28.917,6.706z"/>
<path fill="#41739B" d="M34.5,1.464h20.122c1.91,0,3.476,1.414,3.476,3.474v20.123c0,2.062-1.564,3.476-3.476,3.476h-20.12
	c-1.913,0-3.477-1.414-3.477-3.476V4.938C31.025,2.878,32.589,1.465,34.5,1.464L34.5,1.464z M50.746,4.47
	c-0.67,0-1.218,0.55-1.218,1.22v2.917c0,0.67,0.548,1.22,1.218,1.22h3.06c0.672,0,1.22-0.55,1.22-1.22V5.69
	c0-0.67-0.548-1.22-1.22-1.22H50.746z M55.038,12.912h-2.385c0.227,0.736,0.35,1.517,0.35,2.322c0,4.502-3.77,8.155-8.416,8.155
	s-8.414-3.65-8.414-8.155c0-0.806,0.122-1.587,0.348-2.322h-2.485v11.436c0,0.592,0.483,1.076,1.075,1.076h18.852
	c0.592,0,1.076-0.484,1.076-1.076L55.038,12.912L55.038,12.912z M44.588,9.672c-3.003,0-5.437,2.357-5.437,5.268
	c0,2.91,2.434,5.267,5.437,5.267c3,0,5.437-2.355,5.437-5.267c0-2.91-2.434-5.27-5.437-5.27V9.672z"/>
<path fill="#333333" d="M105,0.93c-7.77,0-14.068,6.3-14.068,14.07c0,7.77,6.297,14.068,14.068,14.068
	c7.77,0,14.068-6.301,14.068-14.068C119.068,7.23,112.77,0.93,105,0.93z M113.354,23.354c-1.086,1.088-2.35,1.94-3.756,2.533
	c-0.356,0.152-0.72,0.285-1.088,0.398v-2.107c0-1.107-0.38-1.922-1.14-2.445c0.476-0.047,0.909-0.109,1.31-0.192
	c0.4-0.082,0.82-0.2,1.266-0.354c0.443-0.156,0.844-0.344,1.195-0.56c0.354-0.216,0.689-0.495,1.018-0.84
	c0.324-0.343,0.598-0.729,0.816-1.167c0.219-0.436,0.395-0.956,0.52-1.562c0.13-0.611,0.191-1.283,0.191-2.015
	c0-1.42-0.459-2.628-1.387-3.626c0.42-1.1,0.374-2.295-0.138-3.587l-0.347-0.04c-0.237-0.028-0.666,0.073-1.282,0.3
	c-0.617,0.23-1.312,0.605-2.08,1.128c-1.093-0.303-2.226-0.454-3.396-0.454c-1.183,0-2.311,0.15-3.381,0.454
	c-0.484-0.33-0.943-0.603-1.38-0.817c-0.437-0.214-0.782-0.36-1.043-0.437c-0.262-0.078-0.504-0.126-0.729-0.146
	c-0.225-0.018-0.369-0.02-0.434-0.012c-0.062,0.008-0.107,0.018-0.136,0.026c-0.515,1.302-0.56,2.498-0.14,3.588
	c-0.924,0.998-1.387,2.207-1.387,3.626c0,0.73,0.064,1.404,0.193,2.014c0.128,0.609,0.302,1.129,0.521,1.563
	c0.221,0.437,0.492,0.825,0.816,1.17c0.326,0.343,0.666,0.622,1.018,0.84c0.353,0.214,0.75,0.4,1.195,0.556
	c0.444,0.154,0.866,0.273,1.264,0.355c0.399,0.085,0.836,0.146,1.312,0.193c-0.75,0.515-1.125,1.328-1.125,2.445v2.146
	c-0.416-0.12-0.824-0.269-1.228-0.438c-1.405-0.596-2.67-1.445-3.756-2.533c-1.086-1.086-1.938-2.352-2.533-3.754
	c-0.614-1.455-0.928-3.002-0.928-4.6c0-1.596,0.312-3.143,0.928-4.598c0.597-1.407,1.447-2.672,2.533-3.758
	c1.086-1.084,2.351-1.938,3.756-2.532c1.455-0.616,3.002-0.93,4.601-0.93c1.596,0,3.144,0.313,4.598,0.93
	c1.41,0.595,2.671,1.446,3.761,2.532c1.082,1.086,1.937,2.35,2.529,3.758c0.615,1.455,0.928,3.002,0.928,4.598
	c0,1.598-0.312,3.145-0.928,4.6c-0.585,1.404-1.439,2.668-2.525,3.754L113.354,23.354z"/>
</svg>
