<?xml version="1.0" encoding="UTF-8" standalone="no"?>
<svg width="10px" height="10px" viewBox="0 0 10 10" version="1.1" xmlns="http://www.w3.org/2000/svg" xmlns:xlink="http://www.w3.org/1999/xlink" xmlns:sketch="http://www.bohemiancoding.com/sketch/ns">
    <!-- Generator: Sketch 3.4 (15575) - http://www.bohemiancoding.com/sketch -->
    <title>Shape</title>
    <desc>Created with Sketch.</desc>
    <defs></defs>
    <g id="Page-1" stroke="none" stroke-width="1" fill="none" fill-rule="evenodd" sketch:type="MSPage">
        <g id="label49" sketch:type="MSLayerGroup" fill="#FFFFFF">
            <path d="M9.06041411,0 L6.24242521,0 C5.7257511,0 5.00417734,0.298875187 4.63887171,0.664200415 L0.273729217,5.02933439 C-0.0915764055,5.39464087 -0.0915764055,5.99246625 0.273729217,6.35777272 L3.64199218,9.72600608 C4.0072978,10.0913313 4.60508427,10.0913313 4.97040864,9.72600608 L9.33555114,5.3608721 C9.70085676,4.99554687 9.99975,4.27395267 9.99975,3.7573336 L9.99975,0.939338087 C9.99973125,0.422700264 9.57705073,0 9.06041411,0 L9.06041411,0 Z M7.81224751,3.1250082 C7.2944859,3.1250082 6.87474912,2.70528919 6.87474912,2.18750762 C6.87474912,1.66974479 7.2944859,1.25000703 7.81224751,1.25000703 C8.33000912,1.25000703 8.7497459,1.66974479 8.7497459,2.18750762 C8.7497459,2.70527044 8.33000912,3.1250082 7.81224751,3.1250082 L7.81224751,3.1250082 Z" id="Shape" sketch:type="MSShapeGroup"></path>
        </g>
    </g>
</svg>