<?xml version="1.0" encoding="utf-8"?>
<!-- Generator: Adobe Illustrator 16.0.0, SVG Export Plug-In . SVG Version: 6.00 Build 0)  -->
<!DOCTYPE svg PUBLIC "-//W3C//DTD SVG 1.1//EN" "http://www.w3.org/Graphics/SVG/1.1/DTD/svg11.dtd">
<svg version="1.1" id="Layer_1" xmlns="http://www.w3.org/2000/svg" xmlns:xlink="http://www.w3.org/1999/xlink" x="0px" y="0px"
	 width="1344.25px" height="30px" viewBox="-144.25 0 1344.25 30" enable-background="new -144.25 0 1344.25 30"
	 xml:space="preserve">
<path fill="#FFFFFF" d="M-13,1c-6.25,0-12.5,4.736-18.75,4.736S-44.25,1-50.5,1S-63,5.736-69.25,5.736S-81.75,1-88,1
	s-12.5,4.736-18.75,4.736S-119.25,1-125.5,1s-12.75,4.736-18.75,4.736V30h150V5.736C-0.5,5.736-6.75,1-13,1z"/>
<path fill="#FFFFFF" d="M136,1c-6.25,0-12.5,4.736-18.75,4.736S104.75,1,98.5,1S86,5.736,79.75,5.736S67.25,1,61,1
	S48.5,5.736,42.25,5.736S29.75,1,23.5,1S10.75,5.736,4.75,5.736V30h150V5.736C148.5,5.736,142.25,1,136,1z"/>
<path fill="#FFFFFF" d="M285,1c-6.25,0-12.5,4.736-18.75,4.736S253.75,1,247.5,1S235,5.736,228.75,5.736S216.25,1,210,1
	s-12.5,4.736-18.75,4.736S178.75,1,172.5,1s-12.75,4.736-18.75,4.736V30h150V5.736C297.5,5.736,291.25,1,285,1z"/>
<path fill="#FFFFFF" d="M434,1c-6.25,0-12.5,4.736-18.75,4.736S402.75,1,396.5,1S384,5.736,377.75,5.736S365.25,1,359,1
	s-12.5,4.736-18.75,4.736S327.75,1,321.5,1s-12.75,4.736-18.75,4.736V30h150V5.736C446.5,5.736,440.25,1,434,1z"/>
<path fill="#FFFFFF" d="M583,1c-6.25,0-12.5,4.736-18.75,4.736S551.75,1,545.5,1S533,5.736,526.75,5.736S514.25,1,508,1
	s-12.5,4.736-18.75,4.736S476.75,1,470.5,1s-12.75,4.736-18.75,4.736V30h150V5.736C595.5,5.736,589.25,1,583,1z"/>
<path fill="#FFFFFF" d="M732,1c-6.25,0-12.5,4.736-18.75,4.736S700.75,1,694.5,1S682,5.736,675.75,5.736S663.25,1,657,1
	s-12.5,4.736-18.75,4.736S625.75,1,619.5,1s-12.75,4.736-18.75,4.736V30h150V5.736C744.5,5.736,738.25,1,732,1z"/>
<path fill="#FFFFFF" d="M881,1c-6.25,0-12.5,4.736-18.75,4.736S849.75,1,843.5,1S831,5.736,824.75,5.736S812.25,1,806,1
	s-12.5,4.736-18.75,4.736S774.75,1,768.5,1s-12.75,4.736-18.75,4.736V30h150V5.736C893.5,5.736,887.25,1,881,1z"/>
<path fill="#FFFFFF" d="M1030,1c-6.25,0-12.5,4.736-18.75,4.736S998.75,1,992.5,1S980,5.736,973.75,5.736S961.25,1,955,1
	s-12.5,4.736-18.75,4.736S923.75,1,917.5,1s-12.75,4.736-18.75,4.736V30h150V5.736C1042.5,5.736,1036.25,1,1030,1z"/>
<path fill="#FFFFFF" d="M1179,1c-6.25,0-12.5,4.736-18.75,4.736S1147.75,1,1141.5,1s-12.5,4.736-18.75,4.736S1110.25,1,1104,1
	s-12.5,4.736-18.75,4.736S1072.75,1,1066.5,1s-12.75,4.736-18.75,4.736V30h150V5.736C1191.5,5.736,1185.25,1,1179,1z"/>
</svg>
