<?xml version="1.0" encoding="utf-8"?>
<!-- Generator: Adobe Illustrator 16.0.0, SVG Export Plug-In . SVG Version: 6.00 Build 0)  -->
<!DOCTYPE svg PUBLIC "-//W3C//DTD SVG 1.1//EN" "http://www.w3.org/Graphics/SVG/1.1/DTD/svg11.dtd">
<svg version="1.1" id="Layer_1" xmlns="http://www.w3.org/2000/svg" xmlns:xlink="http://www.w3.org/1999/xlink" x="0px" y="0px"
	 width="150px" height="30px" viewBox="0 0 150 30" enable-background="new 0 0 150 30" xml:space="preserve">
<path id="path3889" fill="#002154" d="M-678.305-70.424c21.115,0,42.23-16,63.345-16
	c0,0,0.001,0,0.001,0c21.115,0,42.23,16,63.345,16c0,0,0,0,0.001,0c21.115,0,42.23-16,63.345-16c0,0,0,0,0.001,0
	c21.115,0,42.23,16,63.345,16l0,0c21.115,0,42.23-16,63.346-16l0,0c21.115,0,42.23,16,63.346,16l0,0c21.115,0,42.23-16,63.345-16
	c0.001,0,0.001,0,0.001,0c21.115,0,42.23,16,63.345,16v0c0,7.722,0,15.444,0,23.166c0,0,0,0-0.001,0c-21.114,0-42.229-16-63.345-16
	c0,0,0,0-0.001,0c-21.114,0-42.229,16-63.344,16c-0.001,0-0.001,0-0.002,0c-21.114,0-42.229-16-63.344-16c-0.001,0-0.001,0-0.002,0
	c-21.114,0-42.229,16-63.344,16c-0.001,0-0.001,0-0.002,0c-21.114,0-42.229-16-63.344-16c0,0,0,0-0.001,0
	c-21.115,0-42.229,16-63.345,16h0c-21.115,0-42.23-16-63.345-16h0c-21.115,0-42.23,16-63.345,16c0,0,0,0,0,0
	C-678.305-54.98-678.305-62.702-678.305-70.424L-678.305-70.424"/>
<path id="path3891" fill="#003380" d="M-678.305-29.232c21.115,0,42.23-16,63.345-16
	c0,0,0,0,0.001,0c21.115,0,42.23,16,63.345,16c0,0,0,0,0.001,0c21.115,0,42.23-16,63.345-16c0,0,0,0,0.001,0
	c21.115,0,42.23,16,63.345,16l0,0c21.115,0,42.23-16,63.346-16l0,0c21.115,0,42.23,16,63.346,16l0,0c21.115,0,42.23-16,63.345-16
	c0.001,0,0.001,0,0.001,0c21.115,0,42.23,16,63.345,16v0c0,7.722,0,15.444,0,23.166c0,0,0,0-0.001,0c-21.114,0-42.229-16-63.345-16
	c0,0,0,0-0.001,0c-21.114,0-42.229,16-63.344,16c-0.001,0-0.001,0-0.002,0c-21.114,0-42.229-16-63.344-16c-0.001,0-0.001,0-0.002,0
	c-21.114,0-42.229,16-63.344,16c-0.001,0-0.001,0-0.002,0c-21.114,0-42.229-16-63.344-16h0c-21.115,0-42.23,16-63.345,16h0
	c-21.115,0-42.23-16-63.345-16h0c-21.115,0-42.23,16-63.345,16c0,0,0,0,0-0.001C-678.305-13.788-678.305-21.51-678.305-29.232
	L-678.305-29.232"/>
<path id="path3893" fill="#0044AA" d="M-678.305,11.96c21.115,0,42.23-16,63.345-16
	c0,0,0,0,0.001,0c21.115,0,42.23,16,63.345,16c0,0,0,0,0.001,0c21.115,0,42.23-16,63.345-16c0,0,0,0,0.001,0
	c21.115,0,42.23,16,63.345,16l0,0c21.115,0,42.23-16,63.346-16l0,0c21.115,0,42.23,16,63.346,16l0,0c21.115,0,42.23-16,63.345-16
	c0.001,0,0.001,0,0.001,0c21.115,0,42.23,16,63.345,16v0c0,7.722,0,15.444,0,23.167l0,0c-21.115-0.001-42.23-16-63.346-16l0,0
	c-21.115,0-42.23,16-63.345,16c-0.001,0-0.001,0-0.002,0c-21.114-0.001-42.229-16-63.344-16c-0.001,0-0.001,0-0.001,0
	c-21.115,0-42.229,16-63.345,16h-0.001c-21.115-0.001-42.23-16-63.345-16h0c-21.115,0-42.23,16-63.345,16h0
	c-21.115-0.001-42.23-16-63.345-16c0,0-0.001,0-0.001,0c-21.115,0-42.23,16-63.345,16c0-0.001,0-0.001,0-0.001
	C-678.305,27.404-678.305,19.682-678.305,11.96L-678.305,11.96"/>
<path id="path3895" fill="#0054D4" d="M-678.305,53.152c21.115,0,42.23-16,63.345-16
	c0,0,0,0,0.001,0c21.115,0,42.23,16,63.345,16c0,0,0,0,0.001,0c21.115,0,42.23-16,63.345-16c0,0,0,0,0,0
	c21.115,0,42.23,16,63.346,16l0,0c21.115,0,42.23-16,63.346-16l0,0c21.115,0,42.23,16,63.346,16l0,0c21.115,0,42.23-16,63.345-16
	c0.001,0,0.001,0,0.001,0c21.115,0,42.229,16,63.345,16l0,0c0,7.723,0,15.443,0,23.166l0,0c-21.115,0-42.23-16-63.346-16l0,0
	c-21.115,0-42.23,16-63.345,16c-0.001,0-0.001,0-0.002,0c-21.114,0-42.229-16-63.344-16c-0.001,0-0.001,0-0.001,0
	c-21.115,0-42.229,16-63.345,16h-0.001c-21.115,0-42.23-16-63.345-16h0c-21.115,0-42.23,16-63.345,16h0
	c-21.115,0-42.23-16-63.345-16c0,0,0,0,0,0c-21.115,0-42.23,16-63.345,16l0,0C-678.305,68.596-678.305,60.874-678.305,53.152
	L-678.305,53.152"/>
<path id="path3897" fill="#0066FF" d="M-678.305,94.344c21.115,0,42.23-16,63.345-16c0,0,0,0,0,0
	c21.115,0,42.23,16,63.345,16c0,0,0,0,0,0c21.115,0,42.23-16,63.345-16c0,0,0,0,0,0c21.115,0,42.23,16,63.346,16l0,0
	c21.115,0,42.23-16,63.346-16l0,0c21.115,0,42.23,16,63.346,16l0,0c21.115,0,42.229-16,63.345-16h0.001
	c21.115,0,42.229,16,63.345,16l0,0c0,7.723,0,15.444,0,23.167l0,0c-21.115,0-42.23-16-63.346-16l0,0c-21.115,0-42.23,16-63.345,16
	c-0.001,0-0.001,0-0.001,0c-21.115,0-42.23-16-63.345-16c-0.001,0-0.001,0-0.001,0c-21.115,0-42.229,16-63.345,16h-0.001
	c-21.115,0-42.23-16-63.345-16h0c-21.115,0-42.23,16-63.345,16c0,0,0,0,0,0c-21.115,0-42.23-16-63.345-16c0,0,0,0,0,0
	c-21.115,0-42.23,16-63.345,16c0,0,0,0,0-0.001C-678.305,109.788-678.305,102.065-678.305,94.344L-678.305,94.344"/>
<path id="path3899" fill="#2A7FFF" d="M-678.305,135.536c21.115,0,42.23-16,63.345-16c0,0,0,0,0,0
	c21.115,0,42.23,16,63.345,16c0,0,0,0,0,0c21.115,0,42.23-16,63.345-16h0c21.115,0,42.23,16,63.346,16l0,0
	c21.115,0,42.23-16,63.346-16l0,0c21.115,0,42.23,16,63.346,16l0,0c21.115,0,42.229-16,63.345-16h0.001
	c21.115,0,42.229,16,63.345,16l0,0c0,7.722,0,15.444,0,23.166l0,0c-21.115,0-42.23-16-63.346-16l0,0c-21.115,0-42.23,16-63.345,16
	c-0.001,0-0.001,0-0.001,0c-21.115,0-42.229-16-63.345-16h-0.001c-21.115,0-42.229,16-63.345,16h-0.001
	c-21.114,0-42.23-16-63.345-16c0,0,0,0,0,0c-21.115,0-42.23,16-63.345,16l0,0c-21.115,0-42.23-16-63.345-16c0,0,0,0,0,0
	c-21.115,0-42.23,16-63.345,16l0,0C-678.305,150.98-678.305,143.258-678.305,135.536L-678.305,135.536"/>
<path id="path3901" fill="#5599FF" d="M-678.305,176.728c21.115,0,42.23-16,63.345-16c0,0,0,0,0,0
	c21.115,0.001,42.23,16,63.345,16c0,0,0,0,0,0c21.115,0,42.23-16,63.345-16h0c21.115,0.001,42.23,16,63.346,16l0,0
	c21.115,0,42.23-16,63.346-16l0,0c21.115,0.001,42.23,16,63.346,16l0,0c21.115,0,42.229-16,63.345-16h0.001
	c21.114,0.001,42.229,16,63.345,16c0,0.001,0,0.001,0,0.001c0,7.722,0,15.443,0,23.166l0,0c-21.115,0-42.23-16-63.346-16l0,0
	c-21.115,0-42.23,16-63.345,16c-0.001,0-0.001,0-0.001,0c-21.115,0-42.23-16-63.345-16h-0.001c-21.115,0-42.229,16-63.345,16h-0.001
	c-21.114,0-42.23-16-63.345-16c0,0,0,0,0,0c-21.115,0-42.23,16-63.345,16l0,0c-21.115,0-42.23-16-63.346-16l0,0
	c-21.115,0-42.23,16-63.345,16l0,0C-678.305,192.172-678.305,184.45-678.305,176.728L-678.305,176.728"/>
<path id="path3903" fill="#80B3FF" d="M-678.305,217.92c21.115,0,42.23-16,63.345-16c0,0,0,0,0,0
	c21.115,0,42.23,16,63.345,16h0c21.115,0,42.23-16,63.345-16h0c21.115,0,42.23,16,63.346,16l0,0c21.115,0,42.23-16,63.346-16l0,0
	c21.115,0,42.23,16,63.346,16l0,0c21.115,0,42.229-16,63.345-16h0.001c21.115,0,42.229,16,63.345,16l0,0c0,7.723,0,15.444,0,23.166
	l0,0c-21.115,0-42.23-16-63.346-16l0,0c-21.115,0-42.229,16-63.345,16h-0.001c-21.115,0-42.229-16-63.345-16c0,0,0,0-0.001,0
	c-21.114,0-42.229,16-63.345,16c0,0,0,0-0.001,0c-21.114,0-42.23-16-63.345-16l0,0c-21.115,0-42.23,16-63.346,16l0,0
	c-21.115,0-42.23-16-63.346-16l0,0c-21.115,0-42.23,16-63.345,16l0,0C-678.305,233.364-678.305,225.642-678.305,217.92
	L-678.305,217.92"/>
<path id="path3905" fill="#AACCFF" d="M-678.305,259.112c21.115,0,42.23-16,63.345-16c0,0,0,0,0,0
	c21.115,0,42.23,16,63.345,16h0c21.115-0.001,42.23-16,63.345-16c0,0,0,0,0,0c21.115,0,42.23,16,63.346,16l0,0
	c21.115-0.001,42.23-16,63.346-16l0,0c21.115,0,42.23,16,63.346,16l0,0c21.115-0.001,42.229-16,63.345-16c0,0,0,0,0.001,0
	c21.114,0,42.229,16,63.345,16l0,0c0,7.722,0,15.443,0,23.166l0,0c-21.115,0-42.23-16-63.346-16l0,0c-21.115,0-42.229,16-63.345,16
	h-0.001c-21.114,0-42.229-16-63.345-16c0,0,0,0-0.001,0c-21.114,0-42.229,16-63.345,16l0,0c-21.115,0-42.231-16-63.346-16l0,0
	c-21.115,0-42.23,16-63.346,16l0,0c-21.115,0-42.23-16-63.346-16l0,0c-21.115,0-42.23,16-63.345,16l0,0
	C-678.305,274.556-678.305,266.834-678.305,259.112L-678.305,259.112"/>
<path id="path3887" fill="#00112A" d="M-678.305-111.616c21.115,0,42.23-16,63.345-16
	c0,0,0.001,0,0.001,0c21.115,0.001,42.23,16,63.345,16c0,0,0.001,0,0.001,0c21.115,0,42.23-16,63.345-16c0,0,0,0,0.001,0
	c21.115,0.001,42.23,16,63.345,16l0,0c21.115,0,42.23-16,63.346-16l0,0c21.115,0.001,42.23,16,63.346,16l0,0
	c21.115,0,42.23-16,63.345-16c0.001,0,0.001,0,0.001,0c21.115,0.001,42.23,16,63.345,16c0,0,0,0.001,0,0.001
	c0,7.722,0,15.444,0,23.166c0,0,0,0-0.001,0c-21.114,0-42.229-16-63.345-16c0,0,0,0-0.001,0c-21.114,0-42.229,16-63.344,16
	c-0.001,0-0.002,0-0.002,0c-21.114,0-42.229-16-63.344-16c-0.001,0-0.001,0-0.002,0c-21.114,0-42.229,16-63.344,16
	c-0.001,0-0.001,0-0.002,0c-21.114,0-42.229-16-63.344-16c0,0,0,0-0.001,0c-21.115,0-42.229,16-63.345,16c0,0,0,0-0.001,0
	c-21.115,0-42.229-16-63.345-16c0,0,0,0-0.001,0c-21.115,0-42.229,16-63.344,16v0C-678.305-96.172-678.305-103.894-678.305-111.616
	L-678.305-111.616"/>
<path fill="#FFFFFF" d="M131.25,1c-6.25,0-12.5,4.736-18.75,4.736S100,1,93.75,1S81.25,5.736,75,5.736S62.5,1,56.25,1
	S43.75,5.736,37.5,5.736S25,1,18.75,1S6,5.736,0,5.736C0,6.157,0,6.579,0,7l0,0v23h150V12.593c0-1.865,0-3.729,0-5.593
	c0-0.421,0-0.843,0-1.264C143.75,5.736,137.5,1,131.25,1z"/>
</svg>
