<svg xmlns="http://www.w3.org/2000/svg" width="4023.998" height="30" viewBox="-829 0 4023.998 30"><g fill="#FFF"><path d="M-697.75 3.5c-6.25 0-12.5 4.735-18.75 4.735S-729 3.5-735.25 3.5s-12.5 4.735-18.75 4.735S-766.5 3.5-772.75 3.5s-12.5 4.735-18.75 4.735S-804 3.5-810.25 3.5-823 8.235-829 8.235V32.5h150V8.235c-6.25 0-12.5-4.735-18.75-4.735z"/><path d="M-548.75 3.5c-6.25 0-12.5 4.735-18.75 4.735S-580 3.5-586.25 3.5s-12.5 4.735-18.75 4.735S-617.5 3.5-623.75 3.5s-12.5 4.735-18.75 4.735S-655 3.5-661.25 3.5-674 8.235-680 8.235V32.5h150V8.235c-6.25 0-12.5-4.735-18.75-4.735z"/><path d="M-399.75 3.5c-6.25 0-12.5 4.735-18.75 4.735S-431 3.5-437.25 3.5s-12.5 4.735-18.75 4.735S-468.5 3.5-474.75 3.5s-12.5 4.735-18.75 4.735S-506 3.5-512.25 3.5-525 8.235-531 8.235V32.5h150V8.235c-6.25 0-12.5-4.735-18.75-4.735z"/><path d="M-250.75 3.5c-6.25 0-12.5 4.735-18.75 4.735S-282 3.5-288.25 3.5s-12.5 4.735-18.75 4.735S-319.5 3.5-325.75 3.5s-12.5 4.735-18.75 4.735S-357 3.5-363.25 3.5-376 8.235-382 8.235V32.5h150V8.235c-6.25 0-12.5-4.735-18.75-4.735z"/><path d="M-101.75 3.5c-6.25 0-12.5 4.735-18.75 4.735S-133 3.5-139.25 3.5s-12.5 4.735-18.75 4.735S-170.5 3.5-176.75 3.5s-12.5 4.735-18.75 4.735S-208 3.5-214.25 3.5-227 8.235-233 8.235V32.5h150V8.235c-6.25 0-12.5-4.735-18.75-4.735z"/><path d="M47.25 3.5C41 3.5 34.75 8.235 28.5 8.235S16 3.5 9.75 3.5-2.75 8.235-9 8.235-21.5 3.5-27.75 3.5s-12.5 4.735-18.75 4.735S-59 3.5-65.25 3.5-78 8.235-84 8.235V32.5H66V8.235c-6.25 0-12.5-4.735-18.75-4.735z"/><path d="M196.25 3.5c-6.25 0-12.5 4.735-18.75 4.735S165 3.5 158.75 3.5 146.25 8.235 140 8.235 127.5 3.5 121.25 3.5s-12.5 4.735-18.75 4.735S90 3.5 83.75 3.5 71 8.235 65 8.235V32.5h150V8.235c-6.25 0-12.5-4.735-18.75-4.735z"/><path d="M345.25 3.5c-6.25 0-12.5 4.735-18.75 4.735S314 3.5 307.75 3.5 295.25 8.235 289 8.235 276.5 3.5 270.25 3.5s-12.5 4.735-18.75 4.735S239 3.5 232.75 3.5 220 8.235 214 8.235V32.5h150V8.235c-6.25 0-12.5-4.735-18.75-4.735z"/><path d="M494.25 3.5c-6.25 0-12.5 4.735-18.75 4.735S463 3.5 456.75 3.5 444.25 8.235 438 8.235 425.5 3.5 419.25 3.5s-12.5 4.735-18.75 4.735S388 3.5 381.75 3.5 369 8.235 363 8.235V32.5h150V8.235c-6.25 0-12.5-4.735-18.75-4.735z"/></g><g fill="#FFF"><path d="M643.25 3.5c-6.25 0-12.5 4.735-18.75 4.735S612 3.5 605.75 3.5 593.25 8.235 587 8.235 574.5 3.5 568.25 3.5s-12.5 4.735-18.75 4.735S537 3.5 530.75 3.5 518 8.235 512 8.235V32.5h150V8.235c-6.25 0-12.5-4.735-18.75-4.735z"/><path d="M792.25 3.5c-6.25 0-12.5 4.735-18.75 4.735S761 3.5 754.75 3.5 742.25 8.235 736 8.235 723.5 3.5 717.25 3.5s-12.5 4.735-18.75 4.735S686 3.5 679.75 3.5 667 8.235 661 8.235V32.5h150V8.235c-6.25 0-12.5-4.735-18.75-4.735z"/><path d="M941.25 3.5c-6.25 0-12.5 4.735-18.75 4.735S910 3.5 903.75 3.5 891.25 8.235 885 8.235 872.5 3.5 866.25 3.5s-12.5 4.735-18.75 4.735S835 3.5 828.75 3.5 816 8.235 810 8.235V32.5h150V8.235c-6.25 0-12.5-4.735-18.75-4.735z"/><path d="M1090.25 3.5c-6.25 0-12.5 4.735-18.75 4.735S1059 3.5 1052.75 3.5s-12.5 4.735-18.75 4.735-12.5-4.735-18.75-4.735-12.5 4.735-18.75 4.735S984 3.5 977.75 3.5 965 8.235 959 8.235V32.5h150V8.235c-6.25 0-12.5-4.735-18.75-4.735z"/><path d="M1239.25 3.5c-6.25 0-12.5 4.735-18.75 4.735S1208 3.5 1201.75 3.5s-12.5 4.735-18.75 4.735-12.5-4.735-18.75-4.735-12.5 4.735-18.75 4.735S1133 3.5 1126.75 3.5 1114 8.235 1108 8.235V32.5h150V8.235c-6.25 0-12.5-4.735-18.75-4.735z"/><path d="M1388.25 3.5c-6.25 0-12.5 4.735-18.75 4.735S1357 3.5 1350.75 3.5s-12.5 4.735-18.75 4.735-12.5-4.735-18.75-4.735-12.5 4.735-18.75 4.735S1282 3.5 1275.75 3.5 1263 8.235 1257 8.235V32.5h150V8.235c-6.25 0-12.5-4.735-18.75-4.735z"/><path d="M1537.25 3.5c-6.25 0-12.5 4.735-18.75 4.735S1506 3.5 1499.75 3.5s-12.5 4.735-18.75 4.735-12.5-4.735-18.75-4.735-12.5 4.735-18.75 4.735S1431 3.5 1424.75 3.5 1412 8.235 1406 8.235V32.5h150V8.235c-6.25 0-12.5-4.735-18.75-4.735z"/><path d="M1686.25 3.5c-6.25 0-12.5 4.735-18.75 4.735S1655 3.5 1648.75 3.5s-12.5 4.735-18.75 4.735-12.5-4.735-18.75-4.735-12.5 4.735-18.75 4.735S1580 3.5 1573.75 3.5 1561 8.235 1555 8.235V32.5h150V8.235c-6.25 0-12.5-4.735-18.75-4.735z"/><path d="M1835.25 3.5c-6.25 0-12.5 4.735-18.75 4.735S1804 3.5 1797.75 3.5s-12.5 4.735-18.75 4.735-12.5-4.735-18.75-4.735-12.5 4.735-18.75 4.735S1729 3.5 1722.75 3.5 1710 8.235 1704 8.235V32.5h150V8.235c-6.25 0-12.5-4.735-18.75-4.735z"/></g><g fill="#FFF"><path d="M1984.25 3.5c-6.25 0-12.5 4.735-18.75 4.735S1953 3.5 1946.75 3.5s-12.5 4.735-18.75 4.735-12.5-4.735-18.75-4.735-12.5 4.735-18.75 4.735S1878 3.5 1871.75 3.5 1859 8.235 1853 8.235V32.5h150V8.235c-6.25 0-12.5-4.735-18.75-4.735z"/><path d="M2133.248 3.5c-6.25 0-12.5 4.735-18.75 4.735s-12.5-4.735-18.75-4.735-12.5 4.735-18.75 4.735-12.5-4.735-18.75-4.735-12.5 4.735-18.75 4.735-12.5-4.735-18.75-4.735S2008 8.235 2002 8.235V32.5h150V8.235c-6.25 0-12.5-4.735-18.75-4.735z"/><path d="M2282.248 3.5c-6.25 0-12.5 4.735-18.75 4.735s-12.5-4.735-18.75-4.735-12.5 4.735-18.75 4.735-12.5-4.735-18.75-4.735-12.5 4.735-18.75 4.735-12.5-4.735-18.75-4.735-12.75 4.735-18.75 4.735V32.5h150V8.235c-6.25 0-12.5-4.735-18.75-4.735z"/><path d="M2431.248 3.5c-6.25 0-12.5 4.735-18.75 4.735s-12.5-4.735-18.75-4.735-12.5 4.735-18.75 4.735-12.5-4.735-18.75-4.735-12.5 4.735-18.75 4.735-12.5-4.735-18.75-4.735-12.75 4.735-18.75 4.735V32.5h150V8.235c-6.25 0-12.5-4.735-18.75-4.735z"/><path d="M2580.248 3.5c-6.25 0-12.5 4.735-18.75 4.735s-12.5-4.735-18.75-4.735-12.5 4.735-18.75 4.735-12.5-4.735-18.75-4.735-12.5 4.735-18.75 4.735-12.5-4.735-18.75-4.735-12.75 4.735-18.75 4.735V32.5h150V8.235c-6.25 0-12.5-4.735-18.75-4.735z"/><path d="M2729.248 3.5c-6.25 0-12.5 4.735-18.75 4.735s-12.5-4.735-18.75-4.735-12.5 4.735-18.75 4.735-12.5-4.735-18.75-4.735-12.5 4.735-18.75 4.735-12.5-4.735-18.75-4.735-12.75 4.735-18.75 4.735V32.5h150V8.235c-6.25 0-12.5-4.735-18.75-4.735z"/><path d="M2878.248 3.5c-6.25 0-12.5 4.735-18.75 4.735s-12.5-4.735-18.75-4.735-12.5 4.735-18.75 4.735-12.5-4.735-18.75-4.735-12.5 4.735-18.75 4.735-12.5-4.735-18.75-4.735-12.75 4.735-18.75 4.735V32.5h150V8.235c-6.25 0-12.5-4.735-18.75-4.735z"/><path d="M3027.248 3.5c-6.25 0-12.5 4.735-18.75 4.735s-12.5-4.735-18.75-4.735-12.5 4.735-18.75 4.735-12.5-4.735-18.75-4.735-12.5 4.735-18.75 4.735-12.5-4.735-18.75-4.735-12.75 4.735-18.75 4.735V32.5h150V8.235c-6.25 0-12.5-4.735-18.75-4.735z"/><path d="M3176.248 3.5c-6.25 0-12.5 4.735-18.75 4.735s-12.5-4.735-18.75-4.735-12.5 4.735-18.75 4.735-12.5-4.735-18.75-4.735-12.5 4.735-18.75 4.735-12.5-4.735-18.75-4.735-12.75 4.735-18.75 4.735V32.5h150V8.235c-6.25 0-12.5-4.735-18.75-4.735z"/></g></svg>