<?xml version="1.0" encoding="utf-8"?>
<!-- Generator: Adobe Illustrator 16.0.0, SVG Export Plug-In . SVG Version: 6.00 Build 0)  -->
<!DOCTYPE svg PUBLIC "-//W3C//DTD SVG 1.1//EN" "http://www.w3.org/Graphics/SVG/1.1/DTD/svg11.dtd">
<svg version="1.1" xmlns="http://www.w3.org/2000/svg" xmlns:xlink="http://www.w3.org/1999/xlink" x="0px" y="0px" width="150px"
	 height="30px" viewBox="0 0 150 30" enable-background="new 0 0 150 30" xml:space="preserve">
<g id="Layer_1">
	<path fill="#EF4640" d="M131.25,1c-6.25,0-12.5,4.736-18.75,4.736S100,1,93.75,1S81.25,5.736,75,5.736S62.5,1,56.25,1
		S43.75,5.736,37.5,5.736S25,1,18.75,1S6,5.736,0,5.736C0,6.157,0,6.579,0,7l0,0v23h150V12.593c0-1.865,0-3.729,0-5.593
		c0-0.421,0-0.843,0-1.264C143.75,5.736,137.5,1,131.25,1z"/>
	<path fill="#FFFFFF" d="M131.25,6c-6.25,0-12.5,4.736-18.75,4.736S100,6,93.75,6S81.25,10.736,75,10.736S62.5,6,56.25,6
		s-12.5,4.736-18.75,4.736S25,6,18.75,6S6,10.736,0,10.736C0,11.157,0,11.579,0,12l0,0v23h150V17.594c0-1.865,0-3.729,0-5.594
		c0-0.421,0-0.843,0-1.264C143.75,10.736,137.5,6,131.25,6z"/>
</g>
<g id="Layer_2">
</g>
</svg>
