<?xml version="1.0" encoding="utf-8"?>
<!-- Generator: Adobe Illustrator 16.0.0, SVG Export Plug-In . SVG Version: 6.00 Build 0)  -->
<!DOCTYPE svg PUBLIC "-//W3C//DTD SVG 1.1//EN" "http://www.w3.org/Graphics/SVG/1.1/DTD/svg11.dtd">
<svg version="1.1" id="Capa_1" xmlns="http://www.w3.org/2000/svg" xmlns:xlink="http://www.w3.org/1999/xlink" x="0px" y="0px"
	 width="30px" height="30px" viewBox="200.059 200.059 30 30" enable-background="new 200.059 200.059 30 30" xml:space="preserve">
<g>
	<path id="Dribbble" fill="#EA4C89" d="M215.058,200.9c-7.82,0.001-14.158,6.339-14.158,14.16c0,7.818,6.338,14.158,14.158,14.158
		c7.82,0,14.159-6.34,14.16-14.158C229.217,207.239,222.878,200.901,215.058,200.9z M223.733,208.241
		c1.382,1.754,2.247,3.927,2.355,6.299c-1.599-0.339-3.109-0.505-4.517-0.505l0,0h-0.01c-1.135,0-2.198,0.103-3.201,0.281
		c-0.243-0.598-0.49-1.171-0.738-1.721C219.855,211.617,221.999,210.222,223.733,208.241z M215.058,204.013
		c2.605,0,4.996,0.911,6.889,2.427c-1.449,1.734-3.36,2.99-5.425,3.876c-1.451-2.806-2.853-4.813-3.811-6.041
		C213.469,204.108,214.251,204.013,215.058,204.013z M210.179,205.164c0.767,0.906,2.302,2.898,3.941,6.009
		c-3.334,0.993-6.692,1.226-8.725,1.225c-0.058,0-0.115,0-0.171,0h-0.001c-0.342,0-0.637-0.005-0.882-0.013
		C205.133,209.213,207.306,206.585,210.179,205.164z M204.011,215.06c0-0.053,0.002-0.105,0.005-0.159
		c0.315,0.011,0.72,0.021,1.207,0.021h0.003c2.22-0.015,6.097-0.2,10.026-1.44c0.215,0.468,0.427,0.956,0.637,1.462
		c-2.625,0.878-4.691,2.275-6.219,3.668c-1.472,1.341-2.465,2.667-3.047,3.555C204.997,220.241,204.012,217.768,204.011,215.06z
		 M215.058,226.107c-2.458,0-4.724-0.813-6.562-2.178c0.39-0.643,1.229-1.878,2.562-3.154c1.373-1.316,3.267-2.669,5.74-3.476
		c0.842,2.356,1.602,5.051,2.183,8.084C217.759,225.848,216.439,226.107,215.058,226.107z M221.31,224.145
		c-0.561-2.743-1.265-5.216-2.038-7.423c0.717-0.103,1.47-0.162,2.266-0.162h0.029l0,0h0.002c1.317,0,2.767,0.165,4.336,0.521
		C225.361,220.002,223.669,222.518,221.31,224.145z"/>
</g>
</svg>
