<?xml version="1.0" encoding="utf-8"?>
<!-- Generator: Adobe Illustrator 16.0.0, SVG Export Plug-In . SVG Version: 6.00 Build 0)  -->
<!DOCTYPE svg PUBLIC "-//W3C//DTD SVG 1.1//EN" "http://www.w3.org/Graphics/SVG/1.1/DTD/svg11.dtd">
<svg version="1.1" id="Capa_1" xmlns="http://www.w3.org/2000/svg" xmlns:xlink="http://www.w3.org/1999/xlink" x="0px" y="0px"
	 width="30px" height="30px" viewBox="241 241 30 30" enable-background="new 241 241 30 30" xml:space="preserve">
<g>
	<path fill="#333333" d="M256,241.932c-7.771,0-14.069,6.298-14.069,14.069c0,7.769,6.298,14.068,14.069,14.068
		c7.77,0,14.068-6.299,14.068-14.068C270.068,248.23,263.77,241.932,256,241.932z M264.354,264.354
		c-1.086,1.088-2.351,1.939-3.756,2.533c-0.358,0.152-0.721,0.285-1.089,0.398v-2.107c0-1.107-0.38-1.922-1.14-2.445
		c0.476-0.047,0.913-0.109,1.312-0.193c0.398-0.082,0.82-0.201,1.264-0.355c0.444-0.156,0.843-0.342,1.196-0.557
		c0.352-0.217,0.69-0.496,1.016-0.84s0.598-0.732,0.817-1.168c0.22-0.434,0.395-0.955,0.522-1.564
		c0.129-0.609,0.192-1.281,0.192-2.013c0-1.419-0.462-2.628-1.388-3.626c0.422-1.1,0.376-2.295-0.137-3.587l-0.344-0.04
		c-0.239-0.028-0.667,0.073-1.285,0.301c-0.617,0.229-1.312,0.604-2.08,1.127c-1.091-0.303-2.223-0.454-3.395-0.454
		c-1.182,0-2.309,0.151-3.379,0.454c-0.486-0.33-0.946-0.603-1.381-0.817c-0.436-0.216-0.783-0.362-1.044-0.439
		c-0.261-0.078-0.503-0.126-0.728-0.145c-0.225-0.018-0.369-0.022-0.433-0.013c-0.064,0.009-0.11,0.018-0.137,0.027
		c-0.513,1.301-0.559,2.497-0.138,3.587c-0.925,0.998-1.388,2.207-1.388,3.626c0,0.732,0.064,1.404,0.193,2.013
		c0.128,0.609,0.302,1.131,0.522,1.564c0.22,0.436,0.493,0.824,0.817,1.168c0.325,0.344,0.665,0.623,1.017,0.84
		c0.352,0.215,0.75,0.4,1.195,0.557c0.444,0.154,0.865,0.273,1.263,0.355c0.399,0.084,0.836,0.146,1.312,0.193
		c-0.751,0.514-1.126,1.328-1.126,2.445v2.148c-0.415-0.121-0.824-0.268-1.225-0.439c-1.407-0.594-2.671-1.445-3.757-2.533
		c-1.086-1.086-1.938-2.35-2.533-3.754c-0.616-1.455-0.928-3.002-0.928-4.599c0-1.596,0.312-3.143,0.928-4.598
		c0.595-1.407,1.447-2.671,2.533-3.757c1.086-1.085,2.35-1.938,3.757-2.533c1.455-0.616,3.002-0.928,4.598-0.928
		c1.597,0,3.143,0.312,4.599,0.928c1.407,0.595,2.67,1.447,3.757,2.533c1.085,1.086,1.938,2.35,2.531,3.757
		c0.616,1.455,0.928,3.002,0.928,4.598c0,1.597-0.312,3.144-0.928,4.599C266.294,262.004,265.44,263.268,264.354,264.354z"/>
</g>
</svg>
