<?xml version="1.0" encoding="utf-8"?>
<!-- Generator: Adobe Illustrator 16.0.0, SVG Export Plug-In . SVG Version: 6.00 Build 0)  -->
<!DOCTYPE svg PUBLIC "-//W3C//DTD SVG 1.1//EN" "http://www.w3.org/Graphics/SVG/1.1/DTD/svg11.dtd">
<svg version="1.1" id="Capa_1" xmlns="http://www.w3.org/2000/svg" xmlns:xlink="http://www.w3.org/1999/xlink" x="0px" y="0px"
	 width="30px" height="30px" viewBox="33.698 33.698 30 30" enable-background="new 33.698 33.698 30 30" xml:space="preserve">
<g>
	<path fill="#3F729B" d="M38.501,35.027h20.121c1.91,0,3.475,1.415,3.475,3.474v20.122c0,2.061-1.564,3.474-3.475,3.474H38.501
		c-1.912,0-3.475-1.413-3.475-3.474V38.5C35.026,36.442,36.589,35.027,38.501,35.027L38.501,35.027z M54.745,38.034
		c-0.67,0-1.218,0.548-1.218,1.218v2.918c0,0.67,0.548,1.219,1.218,1.219h3.06c0.671,0,1.219-0.548,1.219-1.219v-2.918
		c0-0.67-0.548-1.218-1.219-1.218H54.745L54.745,38.034z M59.037,46.474h-2.384c0.226,0.737,0.349,1.517,0.349,2.323
		c0,4.502-3.769,8.153-8.416,8.153c-4.646,0-8.414-3.65-8.414-8.153c0-0.806,0.122-1.587,0.348-2.323h-2.486v11.436
		c0,0.592,0.484,1.076,1.076,1.076h18.851c0.592,0,1.076-0.484,1.076-1.076V46.474L59.037,46.474z M48.587,43.235
		c-3.003,0-5.437,2.358-5.437,5.268c0,2.909,2.434,5.267,5.437,5.267c3.001,0,5.437-2.357,5.437-5.267
		C54.024,45.593,51.59,43.235,48.587,43.235z"/>
</g>
</svg>
