<?xml version="1.0" encoding="utf-8"?>
<!-- Generator: Adobe Illustrator 16.0.0, SVG Export Plug-In . SVG Version: 6.00 Build 0)  -->
<!DOCTYPE svg PUBLIC "-//W3C//DTD SVG 1.1//EN" "http://www.w3.org/Graphics/SVG/1.1/DTD/svg11.dtd">
<svg version="1.1" id="Capa_1" xmlns="http://www.w3.org/2000/svg" xmlns:xlink="http://www.w3.org/1999/xlink" x="0px" y="0px"
	 width="30px" height="30px" viewBox="20 20 30 30" enable-background="new 20 20 30 30" xml:space="preserve">
<g>
	<g>
		<path fill="#55ACEE" d="M48.25,26.635c-0.984,0.437-2.041,0.732-3.15,0.865c1.134-0.679,2-1.755,2.411-3.034
			c-1.062,0.628-2.236,1.085-3.486,1.332c-1.001-1.068-2.426-1.733-4.005-1.733c-3.03,0-5.488,2.458-5.488,5.486
			c0,0.43,0.049,0.849,0.142,1.25c-4.56-0.229-8.603-2.414-11.31-5.734c-0.473,0.809-0.742,1.752-0.742,2.758
			c0,1.904,0.97,3.584,2.44,4.567c-0.899-0.031-1.745-0.277-2.486-0.689v0.068c0,2.658,1.893,4.875,4.401,5.381
			c-0.459,0.123-0.944,0.192-1.445,0.192c-0.355,0-0.698-0.036-1.033-0.103c0.698,2.182,2.725,3.769,5.125,3.812
			c-1.877,1.471-4.245,2.345-6.815,2.345c-0.443,0-0.879-0.026-1.309-0.075c2.429,1.56,5.312,2.469,8.412,2.469
			c10.094,0,15.612-8.361,15.612-15.612l-0.018-0.71C46.584,28.702,47.517,27.736,48.25,26.635z"/>
	</g>
</g>
</svg>
