<?xml version="1.0" encoding="UTF-8"?>
<svg width="190px" height="69px" viewBox="0 0 190 69" version="1.1" xmlns="http://www.w3.org/2000/svg" xmlns:xlink="http://www.w3.org/1999/xlink">
    <!-- Generator: Sketch 54.1 (76490) - https://sketchapp.com -->
    <title>cmcauxe</title>
    <desc>Created with Sketch.</desc>
    <defs>
        <rect id="path-1" x="0" y="16" width="190" height="43"></rect>
        <mask id="mask-2" maskContentUnits="userSpaceOnUse" maskUnits="objectBoundingBox" x="0" y="0" width="190" height="43" fill="white">
            <use xlink:href="#path-1"></use>
        </mask>
    </defs>
    <g id="Page-1" stroke="none" stroke-width="1" fill="none" fill-rule="evenodd">
        <g id="Artboard" transform="translate(-276.000000, -110.000000)">
            <g id="cmcauxe" transform="translate(276.000000, 110.000000)">
                <use id="Rectangle" stroke="#44FFD2" mask="url(#mask-2)" stroke-width="4" stroke-dasharray="8" transform="translate(95.000000, 37.500000) scale(1, -1) translate(-95.000000, -37.500000) " xlink:href="#path-1"></use>
                <rect id="Rectangle" fill="#E3FFF9" x="9" y="53" width="58" height="10"></rect>
                <rect id="Rectangle-Copy" fill="#E3FFF9" x="12" y="11" width="139" height="10"></rect>
                <path d="M28.9472108,47.2727273 L29.5845431,47.2727273 L27.3538798,60.9631119 C27.1281567,62.3631189 26.6070099,63.6133468 25.7904237,64.713833 C24.9738375,65.8143193 23.9614186,66.6825799 22.7531365,67.3186407 C21.5448545,67.9547016 20.2370084,68.2727273 18.829559,68.2727273 C17.4486652,68.2727273 16.2569983,67.9530189 15.2545226,67.3135927 C14.2520468,66.6741664 13.518458,65.8042232 13.0537342,64.7037369 C12.5890103,63.6032506 12.4695117,62.3563881 12.6952347,60.9631119 L14.9258981,47.2727273 L15.5632305,47.2727273 L13.3325671,60.9631119 C13.1267608,62.2419644 13.2230236,63.3828184 13.6213583,64.385708 C14.0196931,65.3885977 14.6669773,66.1794551 15.5632305,66.7583042 C16.4594836,67.3371532 17.5482489,67.6265734 18.829559,67.6265734 C20.1108691,67.6265734 21.3124942,67.3371532 22.4344703,66.7583042 C23.5564465,66.1794551 24.4991579,65.3885977 25.2626328,64.385708 C26.0261078,63.3828184 26.5107411,62.2419644 26.7165474,60.9631119 L28.9472108,47.2727273 Z M34.7538082,47.2727273 L39.6045877,57.1574929 L39.6847659,57.1574929 L47.7426723,47.2727273 L48.5845431,47.2727273 L40.0054786,57.7727273 L45.1769708,68.2727273 L44.4553672,68.2727273 L39.6045877,58.3879616 L39.5244095,58.3879616 L31.4665031,68.2727273 L30.5845431,68.2727273 L39.2036968,57.7727273 L33.9921155,47.2727273 L34.7538082,47.2727273 Z M48.5845431,68.2727273 L52.1459957,47.2727273 L63.5845431,47.2727273 L63.4588448,47.9289773 L52.6906884,47.9289773 L51.0985096,57.4446023 L61.2381744,57.4446023 L61.1124761,58.1008523 L50.9728113,58.1008523 L49.3806325,67.6164773 L60.442085,67.6164773 L60.3163867,68.2727273 L48.5845431,68.2727273 Z M42,11.6188213 L35.9911357,11.6188213 C35.8197591,10.6276883 35.5037881,9.74699371 35.0432133,8.97671103 C34.5826385,8.20642834 34.0096064,7.55196721 33.3240997,7.01330798 C32.6385931,6.47464876 31.8593765,6.06796715 30.9864266,5.79325095 C30.1134767,5.51853475 29.1735969,5.38117871 28.166759,5.38117871 C26.3780151,5.38117871 24.7928047,5.83095241 23.4110803,6.73051331 C22.029356,7.63007421 20.947557,8.94438299 20.165651,10.6734791 C19.3837449,12.4025752 18.9927978,14.5113944 18.9927978,17 C18.9927978,19.5316983 19.3864227,21.6620636 20.1736842,23.3911597 C20.9609458,25.1202558 22.0427447,26.4237916 23.4191136,27.3018061 C24.7954824,28.1798206 26.3726596,28.6188213 28.1506925,28.6188213 C29.1361083,28.6188213 30.0599218,28.4868518 30.9221607,28.2229087 C31.7843995,27.9589657 32.5609384,27.5684437 33.2518006,27.0513308 C33.9426627,26.5342179 34.5264057,25.8986096 35.0030471,25.1444867 C35.4796884,24.3903638 35.809048,23.528522 35.9911357,22.5589354 L42,22.5912548 C41.7750681,24.1641397 41.2904008,25.6400438 40.5459834,27.0190114 C39.801566,28.397979 38.8295536,29.6126373 37.6299169,30.6630228 C36.4302802,31.7134083 35.0271548,32.532158 33.4204986,33.1192966 C31.8138424,33.7064351 30.0304807,34 28.0703601,34 C25.1783789,34 22.5970566,33.3266861 20.3263158,31.980038 C18.055575,30.63339 16.2668579,28.6888594 14.9601108,26.1463878 C13.6533637,23.6039163 13,20.5551509 13,17 C13,13.434076 13.6587192,10.3826172 14.9761773,7.84553232 C16.2936354,5.30844739 18.0877079,3.36661003 20.3584488,2.01996198 C22.6291896,0.673313926 25.199801,0 28.0703601,0 C29.9019482,0 31.6049783,0.258552548 33.1795014,0.775665399 C34.7540245,1.29277825 36.1571499,2.0495831 37.3889197,3.04610266 C38.6206894,4.04262222 39.6355454,5.2599738 40.433518,6.69819392 C41.2314906,8.13641404 41.753646,9.77660676 42,11.6188213 Z M48,0 L55.3975791,0 L65.3044693,23.9121094 L65.6955307,23.9121094 L75.6024209,0 L83,0 L83,33 L77.1992551,33 L77.1992551,10.3286133 L76.8896648,10.3286133 L67.6671322,32.9033203 L63.3328678,32.9033203 L54.1103352,10.2802734 L53.8007449,10.2802734 L53.8007449,33 L48,33 L48,0 Z M119,11.6188213 L112.991136,11.6188213 C112.819759,10.6276883 112.503788,9.74699371 112.043213,8.97671103 C111.582639,8.20642834 111.009606,7.55196721 110.3241,7.01330798 C109.638593,6.47464876 108.859376,6.06796715 107.986427,5.79325095 C107.113477,5.51853475 106.173597,5.38117871 105.166759,5.38117871 C103.378015,5.38117871 101.792805,5.83095241 100.41108,6.73051331 C99.029356,7.63007421 97.947557,8.94438299 97.165651,10.6734791 C96.3837449,12.4025752 95.9927978,14.5113944 95.9927978,17 C95.9927978,19.5316983 96.3864227,21.6620636 97.1736842,23.3911597 C97.9609458,25.1202558 99.0427447,26.4237916 100.419114,27.3018061 C101.795482,28.1798206 103.37266,28.6188213 105.150693,28.6188213 C106.136108,28.6188213 107.059922,28.4868518 107.922161,28.2229087 C108.7844,27.9589657 109.560938,27.5684437 110.251801,27.0513308 C110.942663,26.5342179 111.526406,25.8986096 112.003047,25.1444867 C112.479688,24.3903638 112.809048,23.528522 112.991136,22.5589354 L119,22.5912548 C118.775068,24.1641397 118.290401,25.6400438 117.545983,27.0190114 C116.801566,28.397979 115.829554,29.6126373 114.629917,30.6630228 C113.43028,31.7134083 112.027155,32.532158 110.420499,33.1192966 C108.813842,33.7064351 107.030481,34 105.07036,34 C102.178379,34 99.5970566,33.3266861 97.3263158,31.980038 C95.055575,30.63339 93.2668579,28.6888594 91.9601108,26.1463878 C90.6533637,23.6039163 90,20.5551509 90,17 C90,13.434076 90.6587192,10.3826172 91.9761773,7.84553232 C93.2936354,5.30844739 95.0877079,3.36661003 97.3584488,2.01996198 C99.6291896,0.673313926 102.199801,0 105.07036,0 C106.901948,0 108.604978,0.258552548 110.179501,0.775665399 C111.754024,1.29277825 113.15715,2.0495831 114.38892,3.04610266 C115.620689,4.04262222 116.635545,5.2599738 117.433518,6.69819392 C118.231491,8.13641404 118.753646,9.77660676 119,11.6188213 Z M130.457654,33 L124,33 L135.757496,0 L143.226197,0 L155,33 L148.542346,33 L139.622304,6.76757813 L139.361389,6.76757813 L130.457654,33 Z M131,20 L148,20 L148,25 L131,25 L131,20 Z" id="UXE" fill="#022B3A" fill-rule="nonzero"></path>
            </g>
        </g>
    </g>
</svg>