<svg width="54" height="38" viewBox="0 0 54 38" xmlns="http://www.w3.org/2000/svg">
    <title>
        close-envelope
    </title>
    <g fill="#000" fill-rule="evenodd">
        <path d="M27.44 26.683l-6.572-5.719L2.08 36.978A3.858 3.858 0 0 0 4.701 38h45.478a3.83 3.83 0 0 0 2.61-1.022L34.013 20.964l-6.572 5.72z"/>
        <path d="M52.801 1.3A3.834 3.834 0 0 0 50.179.276H4.701a3.818 3.818 0 0 0-2.614 1.03L27.44 22.91 52.801 1.299zM.88 3.59v31.34l18.338-15.493L.88 3.589zM35.662 19.437L54 34.929V3.578L35.662 19.437z"/>
    </g>
</svg>
