<svg width="346" height="318" viewBox="0 0 346 318" xmlns="http://www.w3.org/2000/svg">
    <title>
        compass
    </title>
    <g fill="none" fill-rule="evenodd">
        <path d="M-21.215-15.738c0-1.864 1.782-2.85 3.92-1.973 5.11 2.082 10.1 4.165 15.09 6.357l156.842 65.767c1.307.548 2.614 1.096 2.614 2.74 0 1.644-1.307 2.083-2.733 2.63-21.863 8.112-43.606 16.114-65.47 24.225-8.673 20.059-17.466 40.118-26.14 60.286-.593 1.206-1.069 2.521-2.851 2.521-1.901.11-2.495-1.096-3.208-2.411C31.065 91.79 5.28 39.177-20.384-13.326c-.356-.878-.95-1.535-.831-2.412z" fill="#809D8A"/>
        <path d="M52.096 233.628c5.941 0 10.694-4.385 10.813-9.865.118-5.48-4.634-9.975-10.575-10.085-5.941-.11-10.813 4.275-10.932 9.756-.118 5.48 4.634 9.974 10.575 10.084 0 .11 0 .11.12.11zM14.193 229.572c4.99 0 9.386-3.179 10.456-7.782 1.307-5.371-2.377-10.633-8.199-11.838-5.822-1.206-11.525 2.192-12.832 7.563-1.307 5.37 2.376 10.632 8.198 11.838.832.11 1.664.22 2.377.22zM181.609 164.244c-4.159 3.946-4.04 10.193.238 14.03 2.138 1.863 4.752 2.85 7.485 2.85 2.852 0 5.585-.987 7.723-2.96 4.16-3.946 4.04-10.194-.237-14.03-4.278-3.946-11.05-3.836-15.21.11zM154.162 185.508c-4.872 3.07-6.179 9.208-2.852 13.811 2.139 2.85 5.466 4.385 8.911 4.385 2.14 0 4.16-.548 6.06-1.754 4.872-3.07 6.179-9.207 2.852-13.811-3.327-4.604-10.1-5.7-14.971-2.63zM230.087 122.153c4.278 0 8.436-2.412 10.1-6.358 2.139-5.151-.594-10.851-6.179-12.824-5.584-1.973-11.763.548-13.902 5.7-2.138 5.151.594 10.851 6.179 12.824 1.188.439 2.495.658 3.802.658zM250.762 80.062c.95-5.37-2.97-10.523-8.912-11.4-5.822-.876-11.406 2.74-12.357 8.221-.95 5.48 2.97 10.523 8.911 11.4.595.11 1.189.11 1.783.11 5.109-.11 9.624-3.508 10.575-8.331zM218.8 135.197c-4.991-2.96-11.645-1.535-14.853 3.069-3.208 4.603-1.782 10.742 3.327 13.701 1.782 1.096 3.802 1.535 5.822 1.535 3.565 0 7.01-1.644 9.03-4.604 3.09-4.604 1.664-10.742-3.327-13.701zM87.98 210.828c-5.823.987-9.625 6.248-8.556 11.62.951 4.713 5.466 8.11 10.575 8.11.713 0 1.307-.11 2.02-.219 5.822-.986 9.625-6.248 8.555-11.618-1.188-5.481-6.772-8.989-12.595-7.893zM122.556 201.183c-.119 0-.119 0-.238.11-5.466 2.082-8.08 7.891-5.822 12.933 1.664 3.837 5.703 6.139 9.98 6.139 1.308 0 2.734-.22 4.04-.768.12 0 .12-.11.238-.11 5.466-2.082 8.08-7.891 5.822-12.933-2.257-5.042-8.554-7.454-14.02-5.371zM234.602-1.05c-5.822 1.315-9.268 6.686-7.842 12.057 1.188 4.494 5.585 7.563 10.456 7.563.832 0 1.783-.11 2.614-.329 5.822-1.315 9.268-6.686 7.842-12.057-1.425-5.371-7.366-8.55-13.07-7.234zM242.088 33.368c-5.941.219-10.575 4.822-10.337 10.303.237 5.371 4.99 9.536 10.693 9.536h.476c5.94-.219 10.575-4.823 10.337-10.303-.238-5.48-5.228-9.646-11.17-9.536zM51.146-217.752c-77.59.877-150.188 29.485-204.37 80.674-38.853 36.61-65.35 82.428-76.638 132.3-10.931 48.559-7.248 98.98 10.932 145.565 1.544 4.055 5.703 6.576 10.1 6.576 1.187 0 2.376-.219 3.683-.548 5.584-1.863 8.555-7.563 6.535-12.715-35.052-90.21-11.763-188.86 60.716-257.367 50.142-47.352 117.394-73.878 189.16-74.646 71.767-.657 139.613 24.334 191.062 70.59l1.663 1.425-32.556.329c-5.941.11-10.694 4.604-10.694 10.084.119 5.48 4.871 9.865 10.812 9.865h.12l58.458-.657c5.941-.11 10.694-4.604 10.694-10.085l-.594-53.929c-.119-5.48-4.872-9.755-10.932-9.865-5.94.11-10.693 4.604-10.693 10.085l.356 30.033-1.663-1.425c-55.37-50.092-128.563-77.166-206.151-76.29z" fill="#4C5760"/>
        <path d="M-133.5 227.49l-1.663-1.426 32.557-.328c5.94-.11 10.693-4.604 10.693-10.085 0-5.48-4.99-9.755-10.931-9.865l-58.46.658c-5.94.11-10.693 4.604-10.693 10.084l.713 53.93c.119 5.48 4.872 9.864 10.813 9.864h.118c5.941-.11 10.694-4.604 10.694-10.084l-.356-30.034 1.663 1.425c56.44 50.86 129.632 76.18 202.943 76.18 75.45 0 150.9-26.964 207.696-80.564 38.854-36.61 65.35-82.428 76.639-132.301 10.93-48.558 7.247-98.98-10.932-145.564-2.02-5.152-8.198-7.892-13.783-6.029-5.584 1.864-8.555 7.563-6.535 12.715 35.052 90.21 11.763 188.86-60.717 257.368-103.847 97.773-274.353 99.637-380.458 4.055z" fill="#4C5760"/>
        <path d="M-28.226-24.398c-2.376 2.302-3.802 5.371-3.802 8.66 0 3.069 1.188 5.261 1.782 6.467l77.233 157.73c3.327 6.796 8.792 8.331 12.832 8.331h.713c3.921-.22 9.268-1.863 12.239-8.769l8.673-19.95c5.228-12.166 10.575-24.223 15.803-36.39 14.615-5.371 29.111-10.742 43.726-16.113l17.585-6.467c8.199-3.07 9.506-8.66 9.506-11.729 0-3.726-1.426-8.768-8.912-11.838-40.398-16.88-80.678-33.87-121.077-50.75l-39.21-16.441-11.763-4.933c-5.466-2.411-11.525-1.425-15.328 2.192zm57.271 37.049c34.933 14.688 69.866 29.376 104.917 44.064l-1.069.329A8440.648 8440.648 0 0 1 85.01 74.69c-2.733.987-4.99 3.07-6.06 5.59-5.822 13.482-11.644 26.855-17.466 40.337l-2.139 4.823L-2.323-.393l31.368 13.044z" fill="#4C5760"/>
    </g>
</svg>
