<svg width="50" height="48" viewBox="0 0 50 48" xmlns="http://www.w3.org/2000/svg">
    <title>
        linkedin-logo
    </title>
    <path d="M49.9 29.511v18.134H39.392v-16.92c0-4.25-1.52-7.15-5.323-7.15-2.903 0-4.63 1.955-5.39 3.846-.278.676-.349 1.617-.349 2.563v17.661h-10.51s.142-28.656 0-31.625H28.33v4.483c-.021.033-.049.07-.07.102h.07v-.102c1.396-2.152 3.89-5.226 9.47-5.226 6.916 0 12.1 4.52 12.1 14.234zM6.826.775C3.232.775.88 3.135.88 6.238c0 3.036 2.284 5.467 5.808 5.467h.07c3.665 0 5.944-2.43 5.944-5.467C12.633 3.135 10.423.775 6.827.775zm-5.323 46.87H12.01V16.02H1.504v31.625z" fill="#000" fill-rule="evenodd"/>
</svg>
