<svg width="338" height="430" viewBox="0 0 338 430" xmlns="http://www.w3.org/2000/svg">
    <title>
        money-1
    </title>
    <g fill="none" fill-rule="evenodd">
        <path d="M312.522 265.963l-33.346 14.154c-14.808 6.286-31.728.191-37.644-13.746-5.916-13.938 1.347-30.297 16.262-36.628L316.6 204.78c5.327-2.26 7.962-8.197 5.85-13.174-2.114-4.978-8.214-7.206-13.541-4.945l-32.493 13.793-10.016-23.595c-2.112-4.977-8.213-7.205-13.54-4.944-5.326 2.261-7.962 8.197-5.849 13.175l10.058 23.694-7.032 2.984c-25.461 10.808-37.995 39.04-27.896 62.833 10.1 23.794 39.115 34.389 64.577 23.58l33.345-14.154c14.808-6.285 31.729-.19 37.645 13.747 5.874 13.838-1.347 30.297-16.262 36.628l-59.98 25.46c-5.326 2.26-7.961 8.197-5.848 13.174 2.112 4.978 8.213 7.206 13.54 4.945l33.665-14.29 10.184 23.992c2.113 4.978 8.213 7.206 13.54 4.945s7.962-8.197 5.85-13.175l-10.185-23.993 7.031-2.984c25.462-10.808 37.996-39.04 27.896-62.833-10.184-23.993-39.156-34.488-64.618-23.68z" stroke="#4C5760" stroke-width="5" fill="#8B9F93"/>
        <path d="M114.065 231.77c2.663-1.13 4.797-3.21 5.87-6.016 2.059-5.22-.67-10.76-6.048-12.471-5.379-1.712-11.325 1.164-13.383 6.385-2.059 5.221.67 10.76 6.048 12.472 2.487.824 5.17.626 7.513-.37zM170.877 437.588c-3.376 4.488-2.501 10.696 2.192 13.756 2.995 2.018 6.825 2.155 10.02.798 1.705-.723 3.347-1.89 4.523-3.564 3.333-4.587 2.394-10.65-2.193-13.756-4.587-3.105-11.06-1.767-14.542 2.766zM315.793 98.91a11.86 11.86 0 0 0 4.642-.913c3.515-1.492 6.164-4.731 6.516-8.64.442-5.475-3.757-10.037-9.523-10.292-5.724-.155-10.716 4.079-11.265 9.599-.336 5.43 3.864 9.991 9.63 10.246zM280.378 100.784c.937-.163 1.938-.47 2.79-.832 4.155-1.764 6.998-6.025 6.48-10.505-.644-5.366-5.633-9.123-11.445-8.301-5.705.777-9.849 5.825-9.312 11.237.622 5.611 5.717 9.323 11.487 8.4zM159.012 413.486c-3.904-3.865-10.522-3.758-14.662.114-4.247 3.918-4.458 10.234-.596 14 3.013 2.95 7.565 3.603 11.4 1.975a11.807 11.807 0 0 0 3.262-2.09c4.289-3.817 4.5-10.134.596-13.999zM134.108 401.616c4.84-3.112 6.327-9.383 3.297-13.854-3.03-4.47-9.537-5.586-14.335-2.374-4.84 3.112-6.327 9.383-3.191 13.809 2.712 4.018 8.028 5.286 12.609 3.342.49-.326 1.023-.552 1.62-.923zM121.194 358.456l-.085-.199-.084-.2c-2.113-4.977-8.214-7.205-13.54-4.943-5.327 2.26-7.963 8.196-5.85 13.174l.085.2.084.198c2.113 4.978 8.214 7.206 13.498 4.845 5.476-2.207 8.005-8.097 5.892-13.075zM102.849 338.045c.574-.127 1.256-.298 1.895-.57 4.581-1.944 7.32-6.749 6.355-11.391-1.112-5.286-6.508-8.518-12.257-7.252-5.6 1.32-9.255 6.631-8.208 12.06 1.112 5.286 6.614 8.473 12.215 7.153zM97.187 303.085c1.341-.099 2.598-.397 3.77-.894 3.835-1.628 6.527-5.356 6.498-9.573-.069-5.493-4.717-9.63-10.485-9.297-5.767.334-10.335 4.975-10.267 10.468.027 5.394 4.717 9.63 10.484 9.296zM98.402 267.44c1.978.218 3.894-.008 5.705-.777 3.196-1.357 5.758-4.207 6.386-7.763.953-5.456-2.756-10.344-8.372-11.133-5.68-.644-10.99 3.138-12.091 8.54-.995 5.357 2.756 10.344 8.372 11.133zM152.685 169.32a10.35 10.35 0 0 0 3.838-2.804c3.865-4.225 3.458-10.514-.894-13.954-4.245-3.485-10.865-2.79-14.58 1.49-3.865 4.224-3.459 10.514.787 13.999 3.163 2.417 7.333 2.762 10.849 1.27zM245.518 109.001l.853-.361c4.9-2.08 7.683-7.374 6.123-12.234-1.687-5.158-7.382-7.91-12.878-6.048-5.538 1.763-8.662 7.437-6.975 12.595 1.645 5.06 7.34 7.812 12.877 6.048zM180.085 143.826c.852-.362 1.769-.868 2.494-1.529 4.564-3.465 5.392-9.808 1.872-13.954-3.52-4.145-10.03-4.672-14.552-1.107-4.522 3.564-5.392 9.808-1.872 13.954 2.862 3.484 7.796 4.445 12.058 2.636zM211.64 123.382l.853-.362c5.115-2.759 7.198-8.812 4.594-13.465-2.645-4.751-8.897-6.445-14.012-3.686-5.115 2.759-7.091 8.767-4.595 13.464 2.626 4.408 8.26 6.129 13.16 4.049zM130.443 198.97c2.024-.859 3.795-2.315 5.099-4.279 2.993-4.795 1.437-10.832-3.45-13.457-4.886-2.626-11.296-.845-14.29 3.95-2.994 4.796-1.437 10.833 3.45 13.458 2.824 1.62 6.208 1.594 9.19.328z" fill="#4C5760"/>
        <path d="M24.269 188.137C1.967 238.933-4.775 293.52 4.679 345.81c9.259 50.888 33.255 97.624 69.56 134.804 3.125 3.252 8.127 3.975 12.332 2.19 1.136-.482 2.184-1.175 3.3-2.02 4.586-4.05 5.113-10.708 1.09-14.816-70.159-72.06-87.938-175.882-46.423-270.843 28.738-65.655 82.298-118.336 150.636-148.21 68.383-29.77 143.43-33.412 211.426-10.055l2.17.688-31.01 13.534c-5.638 2.517-8.36 8.745-6.134 13.988 2.339 5.194 8.665 7.459 14.348 5.046l55.767-24.414c5.639-2.517 8.36-8.746 6.135-13.988L425.41-19.632c-2.339-5.194-8.62-7.353-14.462-4.998-5.638 2.518-8.36 8.746-6.135 13.989l12.536 28.584-2.17-.687C341.875-8.18 260.868-4.358 187.005 27.985S55.312 117.172 24.269 188.137zM191.165 528.863l-2.17-.688 31.01-13.534c5.637-2.517 8.36-8.746 6.134-13.988-2.226-5.243-8.735-7.306-14.462-4.998l-55.654 24.366c-5.638 2.517-8.36 8.745-6.134 13.988l22.579 51.297c2.339 5.195 8.666 7.459 14.349 5.046l.113-.048c5.639-2.517 8.36-8.746 6.135-13.988l-12.536-28.585 2.17.688c74.639 25.734 154.934 20.236 225.061-9.531 72.173-30.636 133.398-87.065 165.963-161.399 22.302-50.796 29.044-105.383 19.59-157.673-9.259-50.888-33.255-97.623-69.56-134.804-4.025-4.107-11.048-4.22-15.633-.17-4.585 4.05-5.112 10.709-1.088 14.816 70.158 72.06 87.937 175.882 46.422 270.844-59.638 135.693-221.982 206.708-362.29 158.36z" fill="#4C5760"/>
    </g>
</svg>
