<svg width="49" height="49" viewBox="0 0 49 49" xmlns="http://www.w3.org/2000/svg">
    <title>
        phone-call
    </title>
    <path d="M18.79 30.28c4.394 4.362 9.48 8.529 11.477 6.517 2.86-2.88 4.62-5.386 10.964-.326 6.344 5.062 1.499 8.469-1.27 11.26-3.196 3.22-15.165.225-27.028-11.548C1.07 24.407-2.015 12.46 1.183 9.24c2.77-2.79 6.14-7.66 11.246-1.353 5.11 6.305 2.617 8.084-.242 10.965-1.996 2.01 2.208 7.065 6.603 11.428zm6.372-20.81s-1.326-.207-2.254.722c-.956.955-.997 2.6.01 3.607.595.595 1.434.722 1.434.722 1.635.306 4.1.826 6.723 3.448 2.622 2.622 3.142 5.087 3.449 6.723 0 0 .126.84.721 1.434 1.006 1.007 2.652.966 3.608.01.928-.928.721-2.254.721-2.254-.519-3.312-2.125-6.773-4.882-9.53-2.758-2.757-6.219-4.362-9.53-4.882zm12.434 1.978c4.808 4.808 6.858 10.264 6.19 14.686 0 0-.233 1.4.682 2.314 1.03 1.03 2.66.97 3.624.008.62-.62.754-1.627.754-1.627.552-3.82-.142-11.508-7.633-18.998C33.722.341 26.036-.353 22.215.198c0 0-1.007.134-1.627.754a2.57 2.57 0 0 0 .007 3.624c.915.915 2.315.682 2.315.682 4.422-.667 9.878 1.382 14.686 6.19z" fill="#000" fill-rule="evenodd"/>
</svg>
